<?xml version="1.0" standalone="no"?>
<!DOCTYPE svg PUBLIC "-//W3C//DTD SVG 1.1//EN" "http://www.w3.org/Graphics/SVG/1.1/DTD/svg11.dtd" >
<svg>
<metadata>
Created by FontForge 20090914 at Tue Mar 30 15:50:02 2021
 By www-data
Copyright &#239;&#190;&#169; 1997, 2001, Berthold LLC. All rights reserved. Akzidenz-Grotesk is a trademark of Berthold Types Limited.
</metadata>
<defs>
<font id="AkzidenzGroteskBQ-BdCnd" horiz-adv-x="396" >
  <font-face 
    font-family="Akzidenz-Grotesk BQ Condensed"
    font-weight="700"
    font-stretch="condensed"
    units-per-em="1000"
    panose-1="0 0 0 0 0 0 0 0 0 0"
    ascent="800"
    descent="-200"
    x-height="512"
    cap-height="706"
    bbox="-51 -221 974 919.001"
    underline-thickness="92"
    underline-position="-268"
    unicode-range="U+0020-U+2122"
  />
<missing-glyph horiz-adv-x="500" 
 />
    <glyph glyph-name=".notdef" horiz-adv-x="500" 
 />
    <glyph glyph-name="space" unicode=" " horiz-adv-x="229" 
 />
    <glyph glyph-name="exclam" unicode="!" horiz-adv-x="229" 
d="M191 393l-19 -203h-78l-16 197v319h113v-313zM194 0h-119v132h119v-132z" />
    <glyph glyph-name="quotedbl" unicode="&#x22;" horiz-adv-x="300" 
d="M276 741l-34 -289h-33l-38 289h105zM129 741l-34 -289h-33l-37 289h104z" />
    <glyph glyph-name="numbersign" unicode="#" horiz-adv-x="537" 
d="M522 405h-109l-9 -89h106v-96h-114l-21 -220h-95l20 220h-71l-21 -220h-96l20 220h-117v96h126l8 89h-122v96h132l19 205h96l-19 -205h71l19 205h96l-20 -205h101v-96zM317 405h-72l-7 -89h71z" />
    <glyph glyph-name="dollar" unicode="$" horiz-adv-x="417" 
d="M384 176c0 -66 -17.001 -114.331 -51.001 -144.998c-23.333 -20 -54.666 -32.333 -93.999 -37v-94h-51v94c-44 2 -78 13.667 -102 35c-16 14 -28 31.667 -36 53c-6.66699 18 -10 42.667 -10 74v78h111v-79c0 -12.667 1.66699 -23.667 5 -33c8.66699 -22 27 -33 55 -33
c13.333 0 25 3 35 9c16.667 12 25 37.333 25 76c0 32.667 -10.667 59.667 -32 81l-141 144c-12 12 -22.667 24.667 -32 38c-19.333 28.667 -29 62 -29 100c0 49.333 10.667 87.333 32 114c24 30 63.667 47 119 51v81h51v-81c34 -4.66699 61 -15 81 -31
c18 -14 31 -31.833 39 -53.5s12 -52.5 12 -92.5c0 -4.66699 -0.166992 -12 -0.5 -22s-0.5 -17.667 -0.5 -23h-112v66c0 26 -4.66699 43.667 -14 53s-22 14 -38 14c-22.667 0 -38.667 -9.33301 -48 -28c-3.33301 -6 -5.33301 -15.333 -6 -28c0 -2 -0.166992 -5 -0.5 -9
s-0.5 -7.33301 -0.5 -10c0 -20.667 8.66699 -40.334 26 -59.001l149 -155c12 -12 22 -23.667 30 -35c18.667 -26.667 28 -64.334 28 -113.001z" />
    <glyph glyph-name="percent" unicode="%" horiz-adv-x="708" 
d="M683 102c0 -28.667 -7.66699 -52.333 -23 -71c-20 -24.667 -51.667 -37 -95 -37c-49.333 0 -84 13.333 -104 40c-4.66699 4.66699 -9 12.334 -13 23.001c-4 11.333 -6 27 -6 47v226c0 20.667 2.33301 38 7 52c6 18 18.167 33.333 36.5 46s43.833 19 76.5 19
c60 0 97.667 -20 113 -60c5.33301 -12.667 8 -29.334 8 -50.001v-235zM519 692.001l-265 -737l-64 22l266 738zM266 326.001c0 -30 -8.00098 -54.333 -24.001 -73c-20.667 -23.333 -52 -35 -94 -35c-64.667 0 -103.667 22 -117 66c-3.33301 10 -5 24.667 -5 44v226
c0 22 2 39 6 51c14.667 44 52.334 66 113.001 66c59.333 0 97 -19.667 113 -59c5.33301 -14 8 -31 8 -51v-235zM600.999 101.001l-0.00292969 237v5v5.5c0 1 -0.166992 3 -0.5 6s-0.666016 5.16699 -0.999023 6.5s-1 3.33301 -2 6s-2.16699 4.66699 -3.5 6
s-3 2.83301 -5 4.5s-4.16699 3 -6.5 4s-5.33301 1.83301 -9 2.5s-7.5 1 -11.5 1c-13.333 0 -23.166 -3.5 -29.499 -10.5s-9.66602 -12.667 -9.99902 -17s-0.5 -11.166 -0.5 -20.499v-241c0 -18.667 6.66699 -30.334 20 -35.001c5.33301 -2 12 -3 20 -3
c9.33301 0 17.333 1.66699 24 5c10 6 15 18.667 15 38zM184.996 325.001l-0.00292969 237v5v5.5c0 1 -0.166992 3 -0.5 6s-0.666016 5.16699 -0.999023 6.5s-1 3.33301 -2 6s-2.16699 4.66699 -3.5 6s-3 2.83301 -5 4.5s-4.16699 3 -6.5 4s-5.33301 1.83301 -9 2.5
s-7.5 1 -11.5 1c-13.333 0 -23.166 -3.5 -29.499 -10.5s-9.66602 -12.667 -9.99902 -17s-0.5 -11.166 -0.5 -20.499v-241c0 -18.667 6.66699 -30.334 20 -35.001c5.33301 -2 12 -3 20 -3c9.33301 0 17.333 1.66699 24 5c10 6 15 18.667 15 38z" />
    <glyph glyph-name="ampersand" unicode="&#x26;" horiz-adv-x="521" 
d="M506 82l-0.999023 -85.002c-32 -4 -50.667 -6 -56 -6c-36.667 0 -67.334 12.333 -92.001 37c-26.667 -14.667 -49.334 -25 -68.001 -31s-40.667 -9 -66 -9c-28 0 -54 4.33301 -78 13c-38 14 -67.167 37.333 -87.5 70s-30.5 69.667 -30.5 111
c0 29.333 4.66699 55.666 14 78.999c16 44.667 52.333 93.334 109 146.001c-5.33301 9.33301 -10 18 -14 26c-25.333 50.667 -38 96.667 -38 138c0 28 6.66699 54.5 20 79.5s32.333 43.167 57 54.5c18.667 8.66699 41.667 13 69 13c24.667 0 45.667 -3.66699 63 -11
c48.667 -22.667 73 -61.334 73 -116.001c0 -9.33301 -0.5 -18.333 -1.5 -27s-3 -17.5 -6 -26.5l-7.5 -23c-2 -6.33301 -5.83301 -14.166 -11.5 -23.499l-12 -20c-2.33301 -4 -7.5 -11.167 -15.5 -21.5s-13 -16.666 -15 -18.999l-17.5 -20.5
c-9.66699 -11.333 -15.167 -18 -16.5 -20l92 -180l6 15c9.33301 22.667 14.333 54.334 15 95.001h103c-4.66699 -88 -26 -158.667 -64 -212c8.66699 -10 18.334 -17 29.001 -21s26.667 -5.66699 48 -5zM275.001 589.998c0 13.333 -3.5 22.832 -10.5 28.499
s-14.5 8.5 -22.5 8.5c-12 -0.666992 -21.167 -6 -27.5 -16s-9.5 -21.333 -9.5 -34c0 -22 8 -49 24 -81l14 20.5c6 9 10.333 15.833 13 20.5c12.667 20.667 19 38.334 19 53.001zM299.001 114.997l-103 187c-17.333 -22 -30.333 -41.833 -39 -59.5s-13 -37.5 -13 -59.5
c0 -14 2 -26 6 -36c6 -16 16.5 -28.833 31.5 -38.5s31.167 -14.5 48.5 -14.5c22.667 0 45.667 7 69 21z" />
    <glyph glyph-name="quotesingle" unicode="'" horiz-adv-x="154" 
d="M129 741l-34 -289h-33l-37 289h104z" />
    <glyph glyph-name="parenleft" unicode="(" horiz-adv-x="292" 
d="M272 -182c-33.333 12 -65.002 28.333 -95.002 49c-82 57.333 -123 131.333 -123 222v411c0 118.667 72.667 210 218 274v-93c-37.333 -21.333 -63.166 -48.333 -77.499 -81s-21.5 -72.667 -21.5 -120v-397c0 -40 7.83301 -73.167 23.5 -99.5s40.834 -52.5 75.501 -78.5
v-87z" />
    <glyph glyph-name="parenright" unicode=")" horiz-adv-x="292" 
d="M238 91c0 -118 -72.667 -209 -218 -273v93c38 20.667 64 47.5 78 80.5s21 73.167 21 120.5v397c0 41.333 -7.5 73.833 -22.5 97.5s-40.5 50.5 -76.5 80.5v87c31.333 -10 63 -26.667 95 -50c42 -30 73 -62.5 93 -97.5s30 -76.5 30 -124.5v-411z" />
    <glyph glyph-name="asterisk" unicode="*" horiz-adv-x="378" 
d="M358 557l-98 -34l60 -79l-68 -53l-64 83l-58 -83l-70 51l56 80l-96 28l25 83l98 -28v103h87v-104l100 34z" />
    <glyph glyph-name="plus" unicode="+" horiz-adv-x="558" 
d="M476 249h-137v-158h-119v158h-138v100h138v157h119v-157h137v-100z" />
    <glyph glyph-name="comma" unicode="," horiz-adv-x="187" 
d="M153 0l-83 -135h-44l68 135h-58v129h117v-129z" />
    <glyph glyph-name="hyphen" unicode="-" horiz-adv-x="314" 
d="M281 242h-248v99h248v-99z" />
    <glyph glyph-name="period" unicode="." horiz-adv-x="187" 
d="M152 0h-117v129h117v-129z" />
    <glyph glyph-name="slash" unicode="/" horiz-adv-x="250" 
d="M240 706l-129 -706h-99l130 706h98z" />
    <glyph glyph-name="zero" unicode="0" 
d="M366 152c0 -20 -1.99902 -37.6631 -5.99902 -52.9961c-12.667 -52.667 -45 -86.334 -97 -101.001c-18.667 -4.66699 -39.334 -7 -62.001 -7c-59.333 0 -103.333 14 -132 42c-13.333 13.333 -23.333 29.666 -30 48.999c-6.66699 21.333 -10 45.666 -10 72.999v344
c0 2.66699 0.166992 7.16699 0.5 13.5s0.5 11.166 0.5 14.499c2 37.333 11.333 67 28 89c29.333 38.667 75.333 58 138 58c84.667 0 138 -29.667 160 -89c6.66699 -18 10 -43.333 10 -76v-357zM251.001 151.004l0.00292969 361.003c0 21.333 -1.33301 36 -4 44
c-6 20.667 -22 31 -48 31c-6 0 -11.333 -0.666992 -16 -2s-8.83398 -2.83301 -12.501 -4.5s-6.83398 -3.83398 -9.50098 -6.50098s-5 -5.33398 -7 -8.00098s-3.5 -5.83398 -4.5 -9.50098l-2.5 -9c-0.666992 -2.33301 -1.16699 -5.5 -1.5 -9.5s-0.5 -6.83301 -0.5 -8.5v-7
v-5.5v-374c0 -41.333 17 -62 51 -62c13.333 0 24.666 3 33.999 9c14 10 21 30.333 21 61z" />
    <glyph glyph-name="one" unicode="1" 
d="M265 0h-117.002v507c-6.66699 -5.33301 -12 -9.33301 -16 -12c-22 -13.333 -50 -23 -84 -29l1 92c0.666992 0 3.83398 0.833008 9.50098 2.5s10.5 3.5 14.5 5.5c28.667 10.667 55.334 28.667 80.001 54c8.66699 9.33301 20 24.333 34 45h78v-665z" />
    <glyph glyph-name="two" unicode="2" 
d="M371 0l-349.998 0.000976562v16c0 64.667 11.333 120.667 34 168c8 16.667 18.167 33 30.5 49s22.666 28.333 30.999 37s22.166 22.334 41.499 41.001l9.5 9.5c4.33301 4.33301 8.33301 8.16602 12 11.499s6.83398 6.66602 9.50098 9.99902c28.667 28.667 46 50 52 64
c5.33301 11.333 8 26.333 8 45v76c0 22.667 -5.66699 39 -17 49c-8 6 -18.667 9 -32 9c-12 0 -21.667 -1.66699 -29 -5c-18 -9.33301 -27 -29 -27 -59v-79h-109v81c0 44.667 10.667 79.334 32 104.001c28.667 31.333 71.667 47 129 47c81.333 0 133 -26 155 -78
c8.66699 -22 13 -44 13 -66v-88c0 -25.333 -3 -46.333 -9 -63c-4 -12.667 -12.333 -27.167 -25 -43.5s-25 -30.833 -37 -43.5s-32 -32.667 -60 -60l-14 -14c-9.33301 -8.66699 -14.833 -14 -16.5 -16s-6.16699 -7 -13.5 -15s-12.333 -14.333 -15 -19l-10 -17
c-4 -6.66699 -7 -13.334 -9 -20.001c-2.66699 -10 -4.33398 -20.333 -5.00098 -31h221v-100z" />
    <glyph glyph-name="three" unicode="3" 
d="M367 143c0 -24 -3.00098 -44.3301 -9.00098 -60.9971c-10 -24.667 -28 -46 -54 -64s-61 -27 -105 -27c-8.66699 0 -18 0.666992 -28 2s-24.333 4.16602 -43 8.49902s-36 12.833 -52 25.5s-28 28.667 -36 48c-7.33301 17.333 -11 35 -11 53v81h115v-71
c0 -14.667 1 -24.334 3 -29.001c8 -19.333 26 -29 54 -29c11.333 0 21 2.33301 29 7c14 8.66699 21 24.334 21 47.001v100c0 32.667 -6.66699 54.667 -20 66c-12.667 10.667 -34.667 16 -66 16h-24v78h24c30.667 0 52.667 7 66 21c10.667 10.667 16 31 16 61v50v4v6
c0 2 -0.166992 4.5 -0.5 7.5s-0.833008 5.83301 -1.5 8.5s-1.66699 5.5 -3 8.5s-3 5.66699 -5 8s-4.66699 4.5 -8 6.5s-7 3.66699 -11 5c-8 2.66699 -15.333 4 -22 4c-26.667 0 -43 -10.667 -49 -32c-1.33301 -4.66699 -2 -10.334 -2 -17.001v-69h-110v83
c0 20.667 4.33301 39.334 13 56.001c23.333 46 74.333 69 153 69c76.667 0 126.334 -25 149.001 -75c8.66699 -18.667 13 -39.334 13 -62.001v-75c0 -33.333 -6.66699 -57 -20 -71c-13.333 -14.667 -38.333 -25.334 -75 -32.001c44 -6.66699 72 -18.667 84 -36
c10 -14.667 15 -41 15 -79v-101z" />
    <glyph glyph-name="four" unicode="4" 
d="M371 126h-40v-126h-107v126h-203v93l171 449h139v-449h40v-93zM231 550l-112 -331h105z" />
    <glyph glyph-name="five" unicode="5" 
d="M367 155c0 -25.333 -3.00098 -48.667 -9.00098 -70c-19.333 -62.667 -71.666 -94 -156.999 -94c-52 0 -92.333 10.333 -121 31c-34.667 24.667 -52 63.334 -52 116.001v69h115v-68c0 -12 0.666992 -20.333 2 -25c6.66699 -21.333 23 -32 49 -32s42.667 9 50 27
c3.33301 7.33301 5 16.666 5 27.999v165c0 35.333 -7.66699 57.333 -23 66c-8 5.33301 -18 8 -30 8c-26.667 0 -45.334 -12.667 -56.001 -38c-4 -9.33301 -6.66699 -19 -8 -29h-92l7 356h310v-100h-216l-2 -136c32 23.333 64.667 35 98 35
c36 -0.666992 63.833 -9.5 83.5 -26.5s32.834 -35.833 39.501 -56.5c4.66699 -14 7 -34.333 7 -61v-165z" />
    <glyph glyph-name="six" unicode="6" 
d="M367 145c0 -30 -3 -52.667 -9 -68c-22 -57.333 -74.667 -86 -158 -86c-58 0 -102 15 -132 45c-13.333 13.333 -23 28.666 -29 45.999c-5.33301 14 -8 35.667 -8 65v383c0 30.667 7 57.334 21 80.001c26 42.667 76.667 64 152 64c26.667 0 53.334 -4.33301 80.001 -13
s46 -22.667 58 -42c13.333 -21.333 20 -49.333 20 -84v-46h-110v36c0 28.667 -7 46.667 -21 54c-8 4 -18 6 -30 6c-10.667 0 -20 -1.83301 -28 -5.5s-13.667 -7.5 -17 -11.5s-6 -9.83301 -8 -17.5s-3 -13 -3 -16v-14.5v-131c33.333 27.333 68.666 41 105.999 41
c34.667 0 60.667 -8.33301 78 -25s28.333 -35 33 -55c3.33301 -13.333 5 -30 5 -50v-155zM253 142v121.001c0 31.333 -6.33301 51.666 -19 60.999c-8 6.66699 -18.667 10 -32 10c-11.333 0 -22 -2.66699 -32 -8c-10.667 -6 -17.5 -13.5 -20.5 -22.5s-4.5 -20.833 -4.5 -35.5
v-109c0 -30.667 5.66699 -51.667 17 -63c10 -9.33301 23.333 -14 40 -14c22.667 0 38 9.66699 46 29c3.33301 8 5 18.333 5 31z" />
    <glyph glyph-name="seven" unicode="7" 
d="M379 566c-12 -20 -20.668 -35.333 -26.001 -46c-34 -60.667 -62.667 -131.334 -86 -212.001c-33.333 -111.333 -49.666 -214 -48.999 -308h-125c0.666992 40.667 8.33398 93 23.001 157c28.667 126.667 71.667 246.334 129 359.001
c3.33301 6.66699 8.16602 15.667 14.499 27l13.5 24h-156v-78h-97v176h359v-99z" />
    <glyph glyph-name="eight" unicode="8" 
d="M365 153c0 -27.333 -2.66895 -50.168 -8.00195 -68.501s-16.333 -35.166 -33 -50.499c-31.333 -28.667 -73 -43 -125 -43c-80 0 -132.667 27.333 -158 82c-8.66699 21.333 -13 44.666 -13 69.999v85c0 20.667 1.33301 36.667 4 48
c4.66699 20.667 12.334 36.167 23.001 46.5s27.334 21.166 50.001 32.499l-6 3c-4 2 -8.66699 4.5 -14 7.5s-9.66602 5.83301 -12.999 8.5c-23.333 18 -35 47.333 -35 88v70c0 39.333 8.66699 70 26 92c7.33301 10 18.666 19.667 33.999 29c25.333 14 59 21 101 21
c79.333 0 129.333 -25.333 150 -76c6.66699 -15.333 10 -38.666 10 -69.999v-58c0 -31.333 -4 -54.333 -12 -69c-8.66699 -15.333 -28 -30.666 -58 -45.999c22 -10 37.667 -19 47 -27c20 -16.667 30 -45 30 -85v-90zM247.998 458.998v69.998c0 23.333 -7.33301 39 -22 47
c-8 4.66699 -17.333 7 -28 7c-26 0 -42.333 -10.333 -49 -31c-1.33301 -5.33301 -2 -11.666 -2 -18.999v-81c0 -17.333 2.66699 -30.333 8 -39c7.33301 -12 22 -18 44 -18c16.667 0 29 4.66699 37 14c8 8.66699 12 25.334 12 50.001zM251.998 146.996l0.000976562 100
c0 28 -6.66699 46.667 -20 56c-8.66699 6 -19.667 9 -33 9c-37.333 0 -56 -22 -56 -66v-93c0 -34 8.33301 -55 25 -63c9.33301 -4.66699 19 -7 29 -7c11.333 0 21.666 2.33301 30.999 7c16 8.66699 24 27.667 24 57z" />
    <glyph glyph-name="nine" unicode="9" 
d="M364 142c0 -38 -8.33496 -68.667 -25.002 -92c-28.667 -39.333 -79 -59 -151 -59c-60 0 -103.667 15.667 -131 47c-12 14 -20.667 29.667 -26 47c-3.33301 14.667 -5 28.334 -5 41.001v53h115v-42c0 -12 1.33301 -22.333 4 -31c6.66699 -18 23 -27 49 -27
c30 0 48 11 54 33c1.33301 4 2 12 2 24v141c-0.666992 -0.666992 -3 -2.5 -7 -5.5s-7 -5.16699 -9 -6.5s-5.16699 -3.33301 -9.5 -6s-8.16602 -4.83398 -11.499 -6.50098s-7.66602 -3.5 -12.999 -5.5s-10.333 -3.66699 -15 -5s-10.167 -2.33301 -16.5 -3
s-12.833 -1 -19.5 -1c-60.667 0.666992 -99 23.667 -115 69c-5.33301 16 -8 32 -8 48v164c0 38.667 7.33301 69.667 22 93c8 14 19.333 26 34 36c28.667 17.333 67.667 26 117 26c79.333 0 130.333 -24.667 153 -74c8 -18 12 -42 12 -72v-386zM249.998 402v123
c0 26 -7 43.667 -21 53c-9.33301 6 -20 9 -32 9c-37.333 -0.666992 -56 -23.667 -56 -69v-116c0 -27.333 4.33301 -46 13 -56s22 -15 40 -15c17.333 0 30 4 38 12c12 10 18 29.667 18 59z" />
    <glyph glyph-name="colon" unicode=":" horiz-adv-x="229" 
d="M196 381h-120v131h120v-131zM196 0h-120v130h120v-130z" />
    <glyph glyph-name="semicolon" unicode=";" horiz-adv-x="229" 
d="M194 382h-119v130h119v-130zM194 0l-82 -135h-45l71 135h-63v130h119v-130z" />
    <glyph glyph-name="less" unicode="&#x3c;" horiz-adv-x="559" 
d="M445 76l-358 193v107l358 195v-114l-249 -130l249 -127v-124z" />
    <glyph glyph-name="equal" unicode="=" horiz-adv-x="559" 
d="M474 354h-389v98h389v-98zM474 162h-389v98h389v-98z" />
    <glyph glyph-name="greater" unicode="&#x3e;" horiz-adv-x="559" 
d="M472 271l-358 -195v113l249 131l-249 127v124l358 -194v-106z" />
    <glyph glyph-name="question" unicode="?" horiz-adv-x="417" 
d="M389 521c0 -40 -7.66797 -71.334 -23.001 -94.001l-68 -99c-25.333 -37.333 -39 -64.333 -41 -81c-1.33301 -8 -2 -19.667 -2 -35v-22h-113v35c0 16.667 0.333008 27.667 1 33c2.66699 24 13.667 50.667 33 80l66 102c1.33301 1.33301 3.33301 4.16602 6 8.49902l5.5 9
c1 1.66699 2.5 4.33398 4.5 8.00098s3.33301 6.5 4 8.5l3 9c1.33301 4 2.33301 7.83301 3 11.5s1.16699 7.83398 1.5 12.501s0.5 9.66699 0.5 15v63c0 32.667 -15 49 -45 49c-32.667 0 -49 -18 -49 -54v-117h-111v74c0 26.667 1.33301 49 4 67c6 34 20.833 61 44.5 81
s62.834 30 117.501 30c50 0 88.333 -10 115 -30c12.667 -8.66699 22.667 -20.667 30 -36c8.66699 -18 13 -47.333 13 -88v-40zM257.999 -0.000976562h-116v130h116v-130z" />
    <glyph glyph-name="at" unicode="@" horiz-adv-x="834" 
d="M793 432c0 -62 -11.3369 -121.166 -34.0039 -177.499s-52.667 -101.5 -90 -135.5s-76.666 -51 -117.999 -51c-24 0 -43.833 6 -59.5 18s-25.5 28.667 -29.5 50c-37.333 -45.333 -79.333 -68 -126 -68c-41.333 0 -74.166 14.667 -98.499 44s-36.5 69.333 -36.5 120
c0 77.333 22.167 145.333 66.5 204s95.833 88 154.5 88c16.667 0 32.334 -3 47.001 -9c19.333 -7.33301 38 -24.333 56 -51l10 40h89l-35 -159c-20.667 -94.667 -31 -150 -31 -166c0 -18 6.66699 -27 20 -27c11.333 0 26 9 44 27c26 28 47 64.667 63 110
s24 90.666 24 135.999c0 66.667 -19.5 119 -58.5 157s-93.167 57 -162.5 57c-98.667 0 -184.167 -40 -256.5 -120s-108.5 -174.333 -108.5 -283c0 -84.667 25 -151.334 75 -200.001c26 -25.333 58.167 -45 96.5 -59s78.5 -21 120.5 -21c118 0 226.333 48.667 325 146l45 -62
c-44 -40 -84.667 -71.333 -122 -94c-78 -45.333 -162.333 -68 -253 -68c-41.333 0 -81.333 5.33301 -120 16c-64.667 18.667 -117.667 48.667 -159 90c-62 60 -93 143 -93 249c0 134.667 43.833 248.5 131.5 341.5s194.834 139.5 321.501 139.5
c89.333 0 162 -26.167 218 -78.5s84 -120.166 84 -203.499zM489.996 350.001c0 26 -5.99902 46.667 -17.999 62s-28 23 -48 23c-30.667 0 -58.334 -20 -83.001 -60s-37 -85 -37 -135c0 -25.333 5.5 -45.333 16.5 -60s25.833 -22 44.5 -22c30 0 57 17.333 81 52
c12.667 17.333 23.167 39.5 31.5 66.5s12.5 51.5 12.5 73.5z" />
    <glyph glyph-name="A" unicode="A" horiz-adv-x="437" 
d="M428 0h-132l-17 115h-120l-19 -115h-130l137 706h149zM265 224l-43 303l-47 -303h90z" />
    <glyph glyph-name="B" unicode="B" horiz-adv-x="479" 
d="M436 151c0 -4 -0.167969 -9.50098 -0.500977 -16.501s-0.5 -12.167 -0.5 -15.5c-3.33301 -52.667 -24 -87.667 -62 -105c-20.667 -9.33301 -54 -14 -100 -14h-223v706h219c19.333 0 33.666 -0.166992 42.999 -0.5s21.333 -2.66602 36 -6.99902
s27.334 -10.833 38.001 -19.5c18 -14 29.5 -30 34.5 -48s7.5 -41 7.5 -69v-63c0 -20.667 -1.33301 -37.334 -4 -50.001c-3.33301 -14 -8 -25.667 -14 -35s-13.667 -16.166 -23 -20.499s-16.166 -7.16602 -20.499 -8.49902s-11.166 -3 -20.499 -5
c33.333 -6.66699 56.666 -18 69.999 -34c2.66699 -3.33301 4.83398 -6.5 6.50098 -9.5s3.16699 -6.5 4.5 -10.5s2.5 -7.33301 3.5 -10s1.83301 -6.33398 2.5 -11.001s1.16699 -8 1.5 -10s0.666016 -5.83301 0.999023 -11.5s0.5 -9 0.5 -10v-11.5v-11v-100zM298.999 491.999
l-0.000976562 48c0 12 -1 22.333 -3 31c-2 8 -5.16699 14.333 -9.5 19s-9.83301 8 -16.5 10s-12.5 3.33301 -17.5 4s-11.833 1 -20.5 1h-52v-178h47c12.667 0 24.334 0.666992 35.001 2c24.667 4.66699 37 25.667 37 63zM307.998 172.999l0.000976562 83.001
c0 19.333 -1.33301 32.333 -4 39c-6.66699 20 -29.334 30 -68.001 30h-56v-223h55c15.333 0 26.333 0.666992 33 2c14 2 24.167 8.16699 30.5 18.5s9.5 27.166 9.5 50.499z" />
    <glyph glyph-name="C" unicode="C" horiz-adv-x="458" 
d="M430 165c0 -36.667 -3.33594 -64.6631 -10.0029 -83.9961c-8 -22.667 -20.833 -41.334 -38.5 -56.001s-37.834 -24.5 -60.501 -29.5s-39.167 -8 -49.5 -9s-20.833 -1.5 -31.5 -1.5c-24 0 -46.333 2.33301 -67 7c-61.333 12 -101 40 -119 84
c-6.66699 17.333 -10 42 -10 74v384c0 8.66699 0.666992 21 2 37c2 47.333 18.667 83.666 50 108.999c34.667 27.333 83.334 41 146.001 41c56 0 100 -10.667 132 -32c20.667 -14 35.334 -31.333 44.001 -52c8 -16.667 12 -43.334 12 -80.001v-108h-128v89
c0 29.333 -4.33301 50.5 -13 63.5s-26.667 19.5 -54 19.5c-23.333 0 -39.166 -6.5 -47.499 -19.5s-12.5 -32.167 -12.5 -57.5v-378c0 -26 4.5 -45.833 13.5 -59.5s25.833 -20.5 50.5 -20.5c26.667 0 43.834 6.66699 51.501 20s11.5 35.666 11.5 66.999v92h128v-100z" />
    <glyph glyph-name="D" unicode="D" horiz-adv-x="479" 
d="M438 190c0 -17.333 -0.333984 -30.334 -1.00098 -39.001c-3.33301 -62.667 -25.333 -105.667 -66 -129c-25.333 -14.667 -62.666 -22 -111.999 -22h-209v706h239c36.667 0 69 -11.667 97 -35c22 -18.667 36.167 -39.667 42.5 -63s9.5 -52.666 9.5 -87.999v-330z
M307.999 178.999v352c0 30 -6 50 -18 60c-10 8 -29.667 12 -59 12h-51v-500h46c16.667 0 29 0.666992 37 2c13.333 2.66699 23.5 8 30.5 16s11.167 16.167 12.5 24.5s2 19.5 2 33.5z" />
    <glyph glyph-name="E" unicode="E" horiz-adv-x="417" 
d="M402 0h-352v706h342v-107h-212v-166h200v-107h-200v-217h222v-109z" />
    <glyph glyph-name="F" unicode="F" 
d="M396 597h-215v-177h202v-105h-202v-315h-131v706h346v-109z" />
    <glyph glyph-name="G" unicode="G" horiz-adv-x="479" 
d="M433 0h-111.001v42c-12 -12.667 -21.333 -21.667 -28 -27c-26 -20 -58.667 -30 -98 -30s-70.666 8.16699 -93.999 24.5s-39.333 35.5 -48 57.5c-6.66699 16.667 -10 37.334 -10 62.001v402c0 39.333 4.33301 70.666 13 93.999c24 64 86.667 96 188 96
c84 0 140.333 -21.667 169 -65c12.667 -19.333 19 -44.333 19 -75v-103h-130v68v5c0 10 -0.166992 17.5 -0.5 22.5s-2.33301 11 -6 18s-8.83398 12.833 -15.501 17.5c-10 6.66699 -23 10 -39 10c-17.333 0 -31 -3.66699 -41 -11c-16.667 -12 -25 -38.667 -25 -80v-373
c0 -16 1.66699 -28.333 5 -37c8.66699 -21.333 27.334 -32 56.001 -32c24 0 41 6 51 18c10 10.667 15 31.667 15 63v110h-80v106h210v-383z" />
    <glyph glyph-name="H" unicode="H" horiz-adv-x="479" 
d="M429 0h-130v323h-119v-323h-130v706h130v-277h119v277h130v-706z" />
    <glyph glyph-name="I" unicode="I" horiz-adv-x="229" 
d="M179 0h-129v706h129v-706z" />
    <glyph glyph-name="J" unicode="J" 
d="M346 160c0 -30 -2.66797 -55 -8.00098 -75c-19.333 -66.667 -76.666 -100 -171.999 -100c-49.333 0 -88.333 10.333 -117 31c-18 12.667 -31 30.667 -39 54c-6 18.667 -9 38.334 -9 59.001v95h121v-67c0 -34 7.33301 -55 22 -63c8 -4 16 -6 24 -6c10.667 0 20 3 28 9
c12.667 9.33301 19 30.666 19 63.999v545h131v-546z" />
    <glyph glyph-name="K" unicode="K" horiz-adv-x="458" 
d="M461 0h-141l-138 345v-345h-132v706h132v-275l141 275h134l-161 -305z" />
    <glyph glyph-name="L" unicode="L" horiz-adv-x="375" 
d="M371 0h-321v706h130v-599h191v-107z" />
    <glyph glyph-name="M" unicode="M" horiz-adv-x="688" 
d="M638 0h-130l12 612l-114 -612h-121l-117 612l10 -612h-128v706h212l83 -494l84 494h209v-706z" />
    <glyph glyph-name="N" unicode="N" horiz-adv-x="500" 
d="M450 0h-164l-125 529l11 -529h-122v706h167l127 -518l-13 518h119v-706z" />
    <glyph glyph-name="O" unicode="O" horiz-adv-x="479" 
d="M435 151c0 -52.667 -13.666 -92.333 -40.999 -119c-34 -31.333 -85 -47 -153 -47c-64 0 -113 13.667 -147 41c-17.333 14 -29 28.667 -35 44c-10 20.667 -15 47.667 -15 81v396c0 59.333 14.667 102 44 128c34.667 30.667 86 46 154 46c47.333 0 85.666 -8 114.999 -24
s50 -35.667 62 -59c10.667 -22 16 -53.333 16 -94v-393zM304.001 170.001l-0.000976562 364.998c0 28 -2.66699 47 -8 57c-9.33301 20.667 -27.333 31 -54 31c-16.667 0 -30.667 -4.33301 -42 -13c-4 -2.66699 -7.5 -5.66699 -10.5 -9s-5.33301 -7 -7 -11l-4.5 -10.5
c-1.33301 -3 -2.16602 -7.16699 -2.49902 -12.5s-0.5 -9.16602 -0.5 -11.499v-13.5v-12v-357c0 -32 4 -53.667 12 -65c10 -14 27.667 -21 53 -21c16 0 29.667 4 41 12c7.33301 5.33301 12.833 12.5 16.5 21.5s5.66699 16.333 6 22s0.5 14.834 0.5 27.501z" />
    <glyph glyph-name="P" unicode="P" horiz-adv-x="458" 
d="M431 454c0 -35.333 -1.5 -61.832 -4.5 -79.499s-9.83301 -32.834 -20.5 -45.501c-18.667 -23.333 -57 -35 -115 -35h-110v-294h-131v706h262c14 0 25.667 -1 35 -3c32.667 -7.33301 55.667 -24 69 -50c10 -20 15 -55.333 15 -106v-93zM303 458.001l-0.000976562 72
c0 30 -3.33301 49 -10 57c-8 10 -24 15 -48 15h-64v-207h63c26.667 0 43.334 4.66699 50.001 14c6 8 9 24.333 9 49z" />
    <glyph glyph-name="Q" unicode="Q" horiz-adv-x="479" 
d="M485 -14l-80 -78.999l-89 91c-1.33301 0 -3.33301 -0.666992 -6 -2s-4.66699 -2 -6 -2c-24 -6 -49.333 -9 -76 -9c-65.333 0 -114.333 16.667 -147 50c-12 12.667 -20.333 25.334 -25 38.001c-8 18 -12 39.667 -12 65v412c0 35.333 5 63.666 15 84.999
c12 24.667 33 45.167 63 61.5s69.333 24.5 118 24.5c61.333 0 109.333 -14.333 144 -43c14.667 -12.667 25.667 -26.334 33 -41.001c10.667 -22 16 -53 16 -93v-397c0 -34 -6.33301 -63 -19 -87zM302 167.001v390.999c0 42.667 -20.667 64 -62 64
c-12 0 -23.333 -2.33301 -34 -7c-20.667 -9.33301 -31 -34 -31 -74v-390c0 -41.333 21 -62 63 -62c12.667 0 23.5 2.33301 32.5 7s15.5 9.33398 19.5 14.001s7 12 9 22s3 16.167 3 18.5v16.5z" />
    <glyph glyph-name="R" unicode="R" horiz-adv-x="479" 
d="M464 0h-135l-100 313h-49v-313h-130v706h260c84.667 0 127 -42 127 -126v-128c0 -35.333 -6.16699 -62 -18.5 -80s-33.833 -31.667 -64.5 -41zM308 484v63c0 22 -4.33301 37.167 -13 45.5s-24.334 12.5 -47.001 12.5h-68v-188h68c22.667 0 38.334 4.83301 47.001 14.5
s13 27.167 13 52.5z" />
    <glyph glyph-name="S" unicode="S" horiz-adv-x="458" 
d="M424 197c0 -51.333 -2.33105 -85.9932 -6.99805 -103.993c-20 -72 -81 -108 -183 -108c-62.667 0 -111 13.333 -145 40c-16 12 -28.333 28 -37 48c-9.33301 23.333 -14 47.666 -14 72.999v103h129v-82v-5c0 -34.667 7.66699 -57 23 -67c10.667 -6.66699 24 -10 40 -10
c20 0 35 4.33301 45 13c8.66699 6.66699 14 16.667 16 30s3 34.666 3 63.999s-4.66699 51 -14 65c-4 6 -14 15.333 -30 28l-123 83c-26 17.333 -45.667 36.666 -59 57.999c-16.667 28 -25 65.333 -25 112c0 41.333 5.66699 73.666 17 96.999
c9.33301 20 22.833 36.5 40.5 49.5s37 21.667 58 26s36.667 7.16602 47 8.49902s20.166 2 29.499 2c89.333 0 146.333 -31 171 -93c7.33301 -18.667 11 -38.334 11 -59.001v-70h-130v72c0 34 -19.333 51 -58 51s-58 -23.333 -58 -70c0 -32 4.66699 -54.667 14 -68
c3.33301 -4.66699 12.333 -12.334 27 -23.001l126 -87c22.667 -14.667 42 -33 58 -55l9 -13c2.66699 -4 5 -8.5 7 -13.5s3.66699 -9 5 -12s2.5 -7.33301 3.5 -13s1.66699 -9.66699 2 -12s0.666016 -7 0.999023 -14s0.5 -11.333 0.5 -13v-15.5v-16z" />
    <glyph glyph-name="T" unicode="T" 
d="M394 604h-131v-604h-131v604h-130v102h392v-102z" />
    <glyph glyph-name="U" unicode="U" horiz-adv-x="479" 
d="M431 159c0 -48 -10.6631 -85.6689 -31.9961 -113.002c-31.333 -40.667 -85.666 -61 -162.999 -61c-64 0 -112 17 -144 51c-12.667 12.667 -22.667 28.667 -30 48c-8.66699 21.333 -13 47.333 -13 78v544h130v-525c0 -25.333 2.33301 -43.666 7 -54.999
c8.66699 -20 26.667 -30 54 -30c15.333 0 28 3.66699 38 11c3.33301 2 6.16602 4.33301 8.49902 7s4.16602 5.33398 5.49902 8.00098s2.66602 6 3.99902 10s2.16602 7.16699 2.49902 9.5s0.666016 5.83301 0.999023 10.5s0.5 8 0.5 10v10.5v9.5v524h131v-547z" />
    <glyph glyph-name="V" unicode="V" horiz-adv-x="417" 
d="M410 706l-133 -706h-131l-140 706h138l69 -467l64 467h133z" />
    <glyph glyph-name="W" unicode="W" horiz-adv-x="708" 
d="M697 706l-136 -706h-137l-68 482l-76 -482h-139l-129 706h135l71 -532l76 532h123l74 -532l74 532h132z" />
    <glyph glyph-name="X" unicode="X" horiz-adv-x="479" 
d="M465 0h-143l-83 245l-84 -245h-141l156 376l-139 330h142l67 -199l68 199h142l-141 -334z" />
    <glyph glyph-name="Y" unicode="Y" horiz-adv-x="417" 
d="M416 706l-141 -497v-209h-133v218l-141 488h137l72 -356l69 356h137z" />
    <glyph glyph-name="Z" unicode="Z" horiz-adv-x="417" 
d="M396 636l-231 -526h227v-110h-369v82l225 515h-196v109h344v-70z" />
    <glyph glyph-name="bracketleft" unicode="[" horiz-adv-x="333" 
d="M291 -172h-241v931h240v-89h-122v-752h123v-90z" />
    <glyph glyph-name="backslash" unicode="\" horiz-adv-x="250" 
d="M240 0h-98l-130 706h99z" />
    <glyph glyph-name="bracketright" unicode="]" horiz-adv-x="333" 
d="M284 -172h-240v90h122v752h-123v89h241v-931z" />
    <glyph glyph-name="asciicircum" unicode="^" horiz-adv-x="559" 
d="M508 358h-122l-105 242l-107 -242h-123l174 348h110z" />
    <glyph glyph-name="underscore" unicode="_" horiz-adv-x="500" 
d="M510 -221h-520v92h520v-92z" />
    <glyph glyph-name="grave" unicode="`" horiz-adv-x="250" 
d="M235 574h-87l-133 132h153z" />
    <glyph glyph-name="a" unicode="a" 
d="M375 0l-125 -0.00488281c-7.33301 8.66699 -12 23.667 -14 45c-1.33301 -1.33301 -4 -4.33301 -8 -9s-7.33301 -8 -10 -10c-24.667 -24.667 -53 -37 -85 -37c-24.667 0 -45.334 6.33301 -62.001 19c-12 8.66699 -21.167 21.334 -27.5 38.001
s-9.83301 30.834 -10.5 42.501s-1 27.834 -1 48.501v8v7c0 46.667 8 79.334 24 98.001c10 12.667 28 25.334 54 38.001l124 62v30c0 28.667 -5.33301 46.667 -16 54c-8 4.66699 -16.667 7 -26 7c-18.667 0 -31 -6.66699 -37 -20c-2.66699 -6 -4 -22 -4 -48v-19h-109v58
c0 30 9.66699 54.333 29 73c25.333 25.333 68.333 38 129 38c70 0 116.667 -21.333 140 -64c8 -14 12 -30.333 12 -49v-285c0 -63.333 5 -102 15 -116c0.666992 -2.66699 3.33398 -5.66699 8.00098 -9zM233 107.995l-0.000976562 150.002l-58 -38
c-5.33301 -4 -8.66602 -6.66699 -9.99902 -8c-11.333 -10.667 -17 -35.334 -17 -74.001c0 -20.667 2 -35.834 6 -45.501s11.667 -14.167 23 -13.5c14.667 0 29 6 43 18z" />
    <glyph glyph-name="b" unicode="b" horiz-adv-x="417" 
d="M379 113c0 -19.333 -2.66797 -37.002 -8.00098 -53.002c-8 -22 -21.333 -39.333 -40 -52s-39.667 -19 -63 -19c-33.333 0 -62 11.667 -86 35c-6.66699 6.66699 -12.667 14.334 -18 23.001l-1 -47h-119v706h119v-234c12.667 10.667 19.334 16.334 20.001 17.001
c32.667 22 61.667 33 87 33c22 0 42.333 -6.33301 61 -19s31.667 -29 39 -49c6 -15.333 9 -32.333 9 -51v-290zM257.999 157.998v215.001c0 22 -4.66699 37.333 -14 46c-8 8 -18.333 12 -31 12c-24 0 -39.667 -10.333 -47 -31c-2.66699 -8 -4 -19.667 -4 -35v-207
c0 -8.66699 0.333008 -16.334 1 -23.001c4 -30 20.333 -45 49 -45c14.667 0 25.667 4.66699 33 14c8.66699 11.333 13 29.333 13 54z" />
    <glyph glyph-name="c" unicode="c" 
d="M367 145c0 -44.667 -9.66895 -79.001 -29.002 -103.001c-27.333 -34.667 -71.666 -52 -132.999 -52s-106.666 16 -135.999 48c-9.33301 12 -16.333 24 -21 36c-6.66699 17.333 -10 39 -10 65v227c0 40.667 9.33301 73.334 28 98.001c30 38.667 76.333 58 139 58
c8 0 16.5 -0.5 25.5 -1.5s22.667 -3.5 41 -7.5s35.333 -11.833 51 -23.5s27.167 -26.5 34.5 -44.5c6.66699 -16.667 10 -38.667 10 -66v-61h-117v62c0 8.66699 -0.666992 17 -2 25c-6 22 -20.333 32.667 -43 32c-10.667 0 -20 -2.33301 -28 -7c-14 -9.33301 -21 -30 -21 -62
v-223c0 -17.333 1 -29 3 -35c6 -21.333 20.667 -32 44 -32c9.33301 0 18 2.33301 26 7c13.333 9.33301 20 29 20 59v59h118v-58z" />
    <glyph glyph-name="d" unicode="d" horiz-adv-x="417" 
d="M372 0l-119.999 0.000976562l1 50c-16.667 -23.333 -32.334 -39.333 -47.001 -48c-16 -8 -33.667 -12 -53 -12c-25.333 0 -49 7.33301 -71 22c-18 13.333 -29.667 29.666 -35 48.999s-8 50.333 -8 93v233c0 58 17.333 97.667 52 119c20.667 11.333 40.334 17 59.001 17
c31.333 0 65.666 -17.333 102.999 -52v235h119v-706zM253.001 152.001v220c0 9.33301 -0.333008 16.5 -1 21.5s-2.66699 10.167 -6 15.5s-8.33301 10 -15 14c-10 5.33301 -19.667 8 -29 8c-10 0 -18.667 -2.66699 -26 -8c-12.667 -8.66699 -19 -27.667 -19 -57v-218
c0 -26 5.66699 -42.667 17 -50c7.33301 -5.33301 17 -8 29 -8c18 0 31.667 6.66699 41 20c6 8.66699 9 22.667 9 42z" />
    <glyph glyph-name="e" unicode="e" 
d="M360 230l-203 0.000976562v-84c0 -16.667 1 -28 3 -34c6 -19.333 19.667 -29 41 -29c19.333 0 32 9.33301 38 28c2.66699 7.33301 4 26.666 4 57.999h115v-41c0 -19.333 -1.66699 -34.666 -5 -45.999c-17.333 -61.333 -68 -92 -152 -92c-82.667 0 -134 32.667 -154 98
c-6 21.333 -9 43.666 -9 66.999v216c0 26.667 4.33301 49.667 13 69c11.333 28 31 48.667 59 62s58.667 20 92 20c37.333 0 68.333 -7.5 93 -22.5s41.667 -31.833 51 -50.5s14 -43 14 -73v-146zM242 314.001v63c0 34 -13.667 51 -41 51c-29.333 0 -44 -17 -44 -51v-63h85z
" />
    <glyph glyph-name="f" unicode="f" horiz-adv-x="250" 
d="M240 608c-18 2 -29.668 2.33203 -35.001 0.999023c-14.667 -3.33301 -22 -14.666 -22 -33.999v-63h53v-79h-54v-433h-118v433h-53v79h53c0 61.333 1 99.333 3 114c2.66699 22.667 12.667 41.667 30 57c19.333 16.667 52.333 25 99 25
c10.667 0 25.334 -0.666992 44.001 -2v-98z" />
    <glyph glyph-name="g" unicode="g" horiz-adv-x="417" 
d="M373 -18c0 -7.33301 -0.666992 -18.334 -2 -33.001c-2.66699 -45.333 -20 -79 -52 -101c-28.667 -20 -69 -30 -121 -30c-7.33301 0 -21 1 -41 3c-57.333 10 -93.333 34.667 -108 74c-5.33301 15.333 -8 36.333 -8 63h118c0 -12 0.666992 -20 2 -24
c5.33301 -20 20 -30 44 -30c10 0 19 2.33301 27 7c14 8 21 26 21 54v79c-29.333 -33.333 -64 -50 -104 -50c-20.667 0 -41 5 -61 15c-21.333 11.333 -35 26 -41 44s-9 41 -9 69v271c0 22.667 2.33301 41.334 7 56.001c3.33301 10.667 8 20.667 14 30
s16.833 18.833 32.5 28.5s34.167 14.5 55.5 14.5c34.667 0 70 -17 106 -51v41h120v-530zM252 142.999v227c0 41.333 -16 62 -48 62c-12 0 -21.667 -3 -29 -9c-12.667 -10 -19 -27.333 -19 -52v-228c0 -12 1.33301 -22 4 -30c6 -18 20.333 -27 43 -27c32.667 0 49 19 49 57z
" />
    <glyph glyph-name="h" unicode="h" horiz-adv-x="417" 
d="M373 0h-119.001v364c0 20 -1.33301 33.333 -4 40c-7.33301 15.333 -20.666 23 -39.999 23c-23.333 0 -38.333 -11.667 -45 -35c-1.33301 -5.33301 -2 -12.333 -2 -21v-371h-119v706h117l1 -235c31.333 34 66 51 104 51c23.333 0 44 -6.16699 62 -18.5
s30.667 -29.5 38 -51.5c4.66699 -14 7 -31 7 -51v-401z" />
    <glyph glyph-name="i" unicode="i" horiz-adv-x="208" 
d="M164 586h-120v120h120v-120zM164 0h-120v512h120v-512z" />
    <glyph glyph-name="j" unicode="j" horiz-adv-x="208" 
d="M164 587h-119v119h119v-119zM164 -48c0 -56 -14.999 -93.3291 -44.999 -111.996c-18 -11.333 -44.333 -17 -79 -17c-17.333 0 -33.333 1 -48 3v99c20.667 0 34.667 3.33301 42 10l5 5c1.33301 1.33301 2.33301 3.16602 3 5.49902s1.16699 4.16602 1.5 5.49902
s0.666016 3.66602 0.999023 6.99902s0.5 5.66602 0.5 6.99902v9.5v11.5v526h119v-560z" />
    <glyph glyph-name="k" unicode="k" 
d="M406 0h-134l-110 261v-261h-118v706h118v-369l98 175h132l-131 -213z" />
    <glyph glyph-name="l" unicode="l" horiz-adv-x="208" 
d="M164 0h-120v706h120v-706z" />
    <glyph glyph-name="m" unicode="m" horiz-adv-x="625" 
d="M581 0l-119.002 -0.000976562v379c0 26 -6 43.333 -18 52c-8 4.66699 -16.333 7 -25 7c-32 0 -48 -21.667 -48 -65v-373h-118v376v7.5v8c0 1 -0.166992 3.33301 -0.5 7s-0.666016 6.16699 -0.999023 7.5s-0.833008 3.5 -1.5 6.5s-1.66699 5.33301 -3 7l-4.5 5.5
c-1.66699 2 -3.5 4 -5.5 6c-6.66699 6 -16 9 -28 9c-30.667 0 -46 -20.333 -46 -61v-379h-118v512h119v-34c32.667 30 66.334 45 101.001 45s66.667 -17 96 -51c19.333 16.667 34.333 27.834 45 33.501s23.667 10.167 39 13.5c11.333 2 22.333 3 33 3
c23.333 0 44 -6.16699 62 -18.5s30 -29.5 36 -51.5c3.33301 -10.667 5 -26 5 -46v-406z" />
    <glyph glyph-name="n" unicode="n" horiz-adv-x="417" 
d="M373 0h-118.001v377c0 17.333 -1.16699 29.666 -3.5 36.999s-7.16602 13.333 -14.499 18c-5.33301 4 -13 6 -23 6c-34 0 -51 -23 -51 -69v-369h-119v512h121l-1 -37c17.333 16.667 33.333 28.667 48 36s32.667 11 54 11c24.667 0 46.5 -6.16699 65.5 -18.5
s31.5 -30.166 37.5 -53.499c2.66699 -9.33301 4 -26 4 -50v-400z" />
    <glyph glyph-name="o" unicode="o" 
d="M358 132c0 -37.333 -9.66699 -67.333 -29 -90c-28.667 -34.667 -74 -52 -136 -52c-18.667 0 -35.667 1.66699 -51 5c-48.667 10 -80.334 37 -95.001 81c-6 17.333 -9 40.333 -9 69v229c0 25.333 3.33301 47 10 65c20.667 55.333 71.334 83 152.001 83
c76 0 124.667 -25 146 -75c8 -18 12 -40.667 12 -68v-247zM240 126l-0.000976562 260.001c0 29.333 -6.33301 48 -19 56c-5.33301 4 -12.666 6 -21.999 6c-10 0 -18 -2.33301 -24 -7c-12 -8.66699 -18 -27.334 -18 -56.001v-260c0 -35.333 13.667 -53 41 -53
c28 0 42 18 42 54z" />
    <glyph glyph-name="p" unicode="p" horiz-adv-x="417" 
d="M379 115c0 -29.333 -5.66602 -54.665 -16.999 -75.998c-5.33301 -9.33301 -12.666 -18.333 -21.999 -27c-18 -14.667 -40 -22 -66 -22c-15.333 0 -29.833 2.66699 -43.5 8s-24.834 11.166 -33.501 17.499s-20 15.5 -34 27.5v-220h-119v689h119v-39l7 5
c4 4 7.33301 7 10 9l12.5 9.5c5.66699 4.33301 11.167 7.66602 16.5 9.99902l18 7.5c6.66699 2.66699 13.667 4.66699 21 6s14.666 2 21.999 2c36 0 64.333 -13.667 85 -41c16 -22 24 -53.333 24 -94v-272zM259.001 140.001v237.002c0 23.333 -7 39.666 -21 48.999
c-9.33301 4.66699 -18 7 -26 7c-10.667 0 -19.667 -2.33301 -27 -7c-14.667 -8.66699 -22 -26 -22 -52v-230c0 -12.667 1.33301 -22.334 4 -29.001c7.33301 -18.667 22.333 -28 45 -28c21.333 0 35.333 8 42 24c3.33301 7.33301 5 17 5 29z" />
    <glyph glyph-name="q" unicode="q" horiz-adv-x="417" 
d="M373 -177l-118.003 0.00195312v220c-0.666992 -0.666992 -4.16699 -3.83398 -10.5 -9.50098s-11.166 -9.83398 -14.499 -12.501c-25.333 -21.333 -53.666 -32 -84.999 -32c-21.333 0 -39.666 4.83301 -54.999 14.5s-25.833 19.334 -31.5 29.001s-10.167 19.5 -13.5 29.5
c-4.66699 14 -7 30.667 -7 50v279c0 21.333 2.66699 40 8 56c8 23.333 22 41.666 42 54.999s42.667 20 68 20c36 -0.666992 69 -16 99 -46v36h118v-689zM253.997 149.002v235.999c0 8.66699 -1 15.667 -3 21c-7.33301 20 -22.666 30 -45.999 30
c-8.66699 0 -16.334 -1.66699 -23.001 -5c-16.667 -7.33301 -25 -22.666 -25 -45.999v-243c0 -36 15.667 -54 47 -54c33.333 0 50 20.333 50 61z" />
    <glyph glyph-name="r" unicode="r" horiz-adv-x="292" 
d="M279 521l-1.00195 -118.002c-12 5.33301 -25 8 -39 8c-18 0 -33 -4 -45 -12c-10 -7.33301 -17.5 -17.166 -22.5 -29.499s-7.83301 -22.5 -8.5 -30.5s-1 -20.333 -1 -37v-302h-118v512h119l-1 -65c0.666992 0.666992 1.83398 2.83398 3.50098 6.50098
s3.83398 7.5 6.50098 11.5l8 12c23.333 31.333 56.333 46 99 44z" />
    <glyph glyph-name="s" unicode="s" horiz-adv-x="375" 
d="M341 148c0 -52.667 -8.99902 -90.002 -26.999 -112.002c-24.667 -30.667 -68.334 -46 -131.001 -46c-76.667 0 -125 23.667 -145 71c-7.33301 17.333 -11 39.333 -11 66v53h110v-40c0 -12 1 -22.667 3 -32c4 -22 18.333 -33 43 -33c11.333 0 20.333 2.33301 27 7
c13.333 8 20 24.333 20 49c0 18 -2.16699 30.833 -6.5 38.5s-13.833 16.834 -28.5 27.501l-100 71c-23.333 16.667 -39.333 33.834 -48 51.501s-13 41.5 -13 71.5c0.666992 48 14.167 81.833 40.5 101.5s64.5 29.5 114.5 29.5c68 0 112 -18.333 132 -55
c9.33301 -15.333 14 -36 14 -62v-57h-103v37c0 37.333 -14.667 56 -44 56c-8 0 -15.333 -1.66699 -22 -5c-12.667 -7.33301 -19 -21 -19 -41c0 -14 2.5 -24.667 7.5 -32s13.833 -15.333 26.5 -24l110 -77c8.66699 -6 19 -16.333 31 -31c12.667 -18 19 -45.667 19 -83z" />
    <glyph glyph-name="t" unicode="t" horiz-adv-x="271" 
d="M263 1c-17.333 -4 -37.667 -6.00098 -61 -6.00098c-65.333 0 -105.333 16 -120 48c-6.66699 13.333 -10 33 -10 59v331h-65v79h64v186h118v-186h71v-79h-71v-292c0 -13.333 1 -22.666 3 -27.999c5.33301 -18.667 22.333 -28 51 -28c4 0 10.667 0.666992 20 2v-86z" />
    <glyph glyph-name="u" unicode="u" horiz-adv-x="417" 
d="M373 0l-120.001 -0.000976562v42c-36.667 -34 -73 -51 -109 -51c-22 0 -42 6 -60 18c-12.667 8.66699 -22.167 20.334 -28.5 35.001s-9.83301 27 -10.5 37s-1 25 -1 45v386h120v-368c0 -25.333 3.66699 -41.666 11 -48.999c8.66699 -8.66699 19.334 -13 32.001 -13
c12 0 22 3.33301 30 10c10.667 9.33301 16 28.666 16 57.999v362h120v-512z" />
    <glyph glyph-name="v" unicode="v" horiz-adv-x="354" 
d="M353 512l-123 -512h-116l-113 512h119l53 -355l61 355h119z" />
    <glyph glyph-name="w" unicode="w" horiz-adv-x="562" 
d="M559 512l-116 -512h-112l-50 304l-60 -304h-113l-104 512h116l54 -338l60 338h97l54 -338l58 338h116z" />
    <glyph glyph-name="x" unicode="x" horiz-adv-x="375" 
d="M371 0h-128l-58 207l-58 -207h-123l111 278l-90 234h123l44 -171l46 171h115l-92 -234z" />
    <glyph glyph-name="y" unicode="y" horiz-adv-x="354" 
d="M353 512l-116.999 -549c-10 -48 -23.333 -82.333 -40 -103c-20.667 -24.667 -55 -37 -103 -37c-15.333 0 -41 3 -77 9l18 94c18.667 -4.66699 33.667 -7 45 -7c18 0 31.167 7 39.5 21s13.166 29.333 14.499 46l1 14l-133 512h118l66 -329l51 329h117z" />
    <glyph glyph-name="z" unicode="z" horiz-adv-x="354" 
d="M333 0h-309v100l179 316h-160v96h282v-96l-177 -316h185v-100z" />
    <glyph glyph-name="braceleft" unicode="{" horiz-adv-x="354" 
d="M336 -182l-24.001 -0.00390625c-24 0 -44.667 1.16699 -62 3.5s-34.833 7 -52.5 14s-32.167 18 -43.5 33s-19.666 34.167 -24.999 57.5c-2 10.667 -3.66699 24.834 -5 42.501s-2 33.334 -2 47.001s0.166992 31.167 0.5 52.5s0.5 34.666 0.5 39.999
c0 20 -0.166992 34.333 -0.5 43s-1.83301 20.834 -4.5 36.501s-6.83398 27.167 -12.501 34.5s-14.167 14.5 -25.5 21.5s-25.333 11.5 -42 13.5v77c20 2.66699 35.333 7.33398 46 14.001c12.667 8 22 21.167 28 39.5s9.33301 33 10 44s1 27.833 1 50.5v91
c0 47.333 2.33301 80 7 98c6 22 14.833 40.167 26.5 54.5s26.167 24.833 43.5 31.5s34.5 11.167 51.5 13.5s37.167 3.5 60.5 3.5h24v-75c-28.667 -1.33301 -48.667 -4.33301 -60 -9c-9.33301 -4 -17 -9.83301 -23 -17.5s-10 -17.834 -12 -30.501s-3.16699 -22.5 -3.5 -29.5
s-0.5 -17.5 -0.5 -31.5c0 -75.333 -0.333008 -120.333 -1 -135c-2 -42 -9.66699 -75.667 -23 -101s-38.666 -41 -75.999 -47v-5c21.333 -3.33301 38.833 -9.83301 52.5 -19.5s23.667 -22.667 30 -39s10.5 -31.666 12.5 -45.999s3.33301 -32.833 4 -55.5
c0.666992 -28 1 -70.333 1 -127c0 -13.333 0.333008 -24 1 -32s2.16699 -18 4.5 -30s7 -21.667 14 -29s15.833 -12.666 26.5 -15.999c8 -2.66699 25.667 -4.66699 53 -6v-75z" />
    <glyph glyph-name="bar" unicode="|" horiz-adv-x="205" 
d="M160 -168h-114v930h114v-930z" />
    <glyph glyph-name="braceright" unicode="}" horiz-adv-x="354" 
d="M336 257c-20 -3.33301 -33.333 -6.66602 -40 -9.99902c-14 -7.33301 -24.5 -19.333 -31.5 -36s-11 -31.167 -12 -43.5s-1.5 -29.166 -1.5 -50.499v-8v-99c0 -42.667 -2 -72 -6 -88c-6 -22 -14.667 -40.167 -26 -54.5s-25.5 -25 -42.5 -32s-33.833 -11.667 -50.5 -14
s-36.667 -3.5 -60 -3.5h-28v75c28 1.33301 47.333 4 58 8c10 3.33301 18.167 9 24.5 17s10.666 18.333 12.999 31s3.66602 22.667 3.99902 30s0.5 18 0.5 32c0 59.333 0.333008 103.666 1 132.999c1.33301 42.667 8.66602 76.5 21.999 101.5s39 40.833 77 47.5v5
c-26.667 4.66699 -47.5 14.667 -62.5 30s-24.5 31.833 -28.5 49.5s-6.66699 40.834 -8 69.501c-0.666992 15.333 -1 61.333 -1 138c0 16 -0.333008 28.667 -1 38s-3.66699 20.5 -9 33.5s-13 22.833 -23 29.5c-11.333 7.33301 -33.666 11.666 -66.999 12.999v75h24
c50.667 0 91.334 -7.16699 122.001 -21.5s51.334 -43.5 62.001 -87.5c2 -9.33301 3.5 -23 4.5 -41s1.5 -34.333 1.5 -49s-0.166992 -32.5 -0.5 -53.5s-0.5 -33.5 -0.5 -37.5c0 -22.667 0.333008 -40.334 1 -53.001s4.66699 -28.5 12 -47.5s18.333 -32.167 33 -39.5
c8 -4 21 -7.33301 39 -10v-77z" />
    <glyph glyph-name="asciitilde" unicode="~" horiz-adv-x="563" 
d="M502 288c-44.667 -47.333 -86.999 -70.999 -126.999 -70.999c-20.667 0 -50.334 9 -89.001 27l-26 12c-32 14.667 -56.333 22 -73 22c-19.333 0 -37.333 -6.66699 -54 -20c-12.667 -12.667 -22.667 -23.334 -30 -32.001l-42 91c18 20 33 34.667 45 44
c22.667 18 48.667 27 78 27c20.667 0 47.334 -7 80.001 -21l50 -22c27.333 -12 47.333 -18 60 -18c25.333 0 53.666 17 84.999 51z" />
    <glyph glyph-name="exclamdown" unicode="&#xa1;" horiz-adv-x="229" 
d="M154 574h-119v132h119v-132zM151 0h-113v313l19 203h78l16 -197v-319z" />
    <glyph glyph-name="cent" unicode="&#xa2;" 
d="M367 317l-118.001 0.00195312v64c0 36 -15 54 -45 54c-5.33301 0 -10.333 -0.5 -15 -1.5s-8.5 -2.5 -11.5 -4.5s-5.83301 -4.33301 -8.5 -7s-4.66699 -5.5 -6 -8.5l-4 -9c-1.33301 -3 -2.16602 -6 -2.49902 -9s-0.5 -6 -0.5 -9v-7.5v-5v-3v-234
c0 -37.333 15.667 -56.666 47 -57.999c30.667 -0.666992 46 18.333 46 57v68h117v-67c0 -92.667 -45.333 -142.334 -136 -149.001v-99h-50v99c-30.667 3.33301 -56.167 10.333 -76.5 21s-34.833 23.834 -43.5 39.501s-14.334 30 -17.001 43s-4 27.833 -4 44.5v242
c0 17.333 1.33301 31.666 4 42.999c14.667 59.333 60.334 92.666 137.001 99.999v83h50v-83c16 -1.33301 29.5 -3.5 40.5 -6.5s25 -8.66699 42 -17s30.333 -22.333 40 -42s14.5 -43.834 14.5 -72.501v-66z" />
    <glyph glyph-name="sterling" unicode="&#xa3;" horiz-adv-x="479" 
d="M457 122c0 -19.333 -2.00195 -37 -6.00195 -53c-15.333 -54 -51.333 -81 -108 -81c-14 0 -28.333 2.33301 -43 7c-29.333 8.66699 -59.333 23.334 -90 44.001c-34 -34 -67.333 -51 -100 -51c-12 0 -24.333 2.33301 -37 7c-34 14 -51 39.667 -51 77
c0 24.667 8.5 45 25.5 61s37.833 24 62.5 24c12 0 37 -6.33301 75 -19c6 14 9 26 9 36c0 24 -12.333 58.667 -37 104h-111v61h86l-18 42c-22 51.333 -33 100 -33 146c0 59.333 17 104 51 134c30.667 28 72 42 124 42c51.333 0 92 -12.333 122 -37c18 -14.667 32 -35 42 -61
c8 -23.333 12 -48.333 12 -75v-49h-115v41c0 12 -0.666992 22.167 -2 30.5s-3.66602 17 -6.99902 26s-9 16 -17 21s-18.333 7.5 -31 7.5c-14.667 0 -26.667 -4 -36 -12c-16.667 -14 -25 -39.667 -25 -77c0 -10.667 0.833008 -21.834 2.5 -33.501
s3.33398 -21.334 5.00098 -29.001s4.66699 -18 9 -31s7.5 -22 9.5 -27s6.33301 -15.167 13 -30.5s10.667 -24.666 12 -27.999h106v-61h-84c6 -22 9 -39.333 9 -52c-0.666992 -32 -10.667 -71.667 -30 -119c1.33301 -0.666992 3.33301 -2 6 -4s4.66699 -3.33301 6 -4
c21.333 -11.333 38.333 -17 51 -17c8.66699 0 15.667 2 21 6c14 10.667 21 31 21 61v48h101v-75zM148.998 74c-16 13.333 -30.667 20.001 -44 20.001c-7.33301 0 -13.5 -2.5 -18.5 -7.5s-7.5 -10.833 -7.5 -17.5c0.666992 -7.33301 3.5 -13.333 8.5 -18s11.167 -7 18.5 -7
c3.33301 0 6.5 0.5 9.5 1.5s5.5 2.16699 7.5 3.5s4.5 3.16602 7.5 5.49902s5.16699 4.33301 6.5 6s3.33301 4 6 7s4.66699 5.16699 6 6.5z" />
    <glyph glyph-name="currency" unicode="&#xa4;" horiz-adv-x="658" 
d="M632 105l-81 -83l-77 81c-48.667 -30 -97 -45 -145 -45c-50.667 0 -99.667 15.333 -147 46l-76 -80l-80 83l77 80c-30 44.667 -45 95 -45 151c0 54 14.667 105 44 153l-75 79l80 83l75 -78c42.667 30 92 45 148 45c50 0 98.333 -15 145 -45l77 79l80 -84l-76 -79
c28.667 -49.333 43 -100 43 -152c0 -54.667 -14.667 -105.667 -44 -153zM482 337c0 47.333 -14.667 87.333 -44 120s-65.333 49 -108 49c-43.333 0 -79.833 -16 -109.5 -48s-44.5 -71.667 -44.5 -119c-0.666992 -46.667 14 -86 44 -118s66.667 -48 110 -48
c42 0 77.833 16 107.5 48s44.5 70.667 44.5 116z" />
    <glyph glyph-name="yen" unicode="&#xa5;" horiz-adv-x="417" 
d="M404 665l-90 -314h79v-73h-99l-18 -57h117v-71h-120v-150h-131v150h-120v71h118l-16 57h-102v73h81l-91 314h133l64 -316l60 316h135z" />
    <glyph glyph-name="brokenbar" unicode="&#xa6;" horiz-adv-x="205" 
d="M160 361h-114v401h114v-401zM160 -168h-114v402h114v-402z" />
    <glyph glyph-name="section" unicode="&#xa7;" horiz-adv-x="437" 
d="M421 260c0 -30 -6.5 -55.667 -19.5 -77s-32.833 -45.666 -59.5 -72.999c20.667 -22 33.667 -41.167 39 -57.5s8 -41.166 8 -74.499c0 -102 -57.333 -153 -172 -153c-84 0 -137.667 25.667 -161 77c-6.66699 14 -10 34.667 -10 62v85h115v-71c0 -40.667 17.667 -61 53 -61
s53 17 53 51c0 20.667 -2 36.667 -6 48s-8.33301 19.5 -13 24.5s-16.667 15.5 -36 31.5l-126 108c-48 40.667 -72 84 -72 130c0 27.333 7 52.166 21 74.499s34 46.5 60 72.5c-15.333 17.333 -25.5 32.5 -30.5 45.5s-7.5 30.5 -7.5 52.5c0 58.667 12.833 100.5 38.5 125.5
s68.834 37.5 129.501 37.5c87.333 0 140.666 -24.333 159.999 -73c5.33301 -12.667 8 -30.667 8 -54v-79h-113v59c0 39.333 -18.667 59 -56 59c-32 0 -48 -18 -48 -54c0 -7.33301 1 -14.333 3 -21s4.16699 -12.167 6.5 -16.5s6.33301 -9.5 12 -15.5s9.66699 -10.333 12 -13
s7.5 -7.33398 15.5 -14.001s13 -10.667 15 -12l120 -103c40.667 -34 61 -74.333 61 -121zM316 233c0 16 -7.33301 32.001 -22 48.001c-12 13.333 -32 31.333 -60 54l-40 33l-40 33c-22 -28 -33 -50.667 -33 -68c0 -10.667 5.33301 -23.334 16 -38.001
c16 -22 64.667 -63.667 146 -125c22 28 33 49 33 63z" />
    <glyph glyph-name="dieresis" unicode="&#xa8;" horiz-adv-x="250" 
d="M276 595h-119v124h119v-124zM93 595h-119v124h119v-124z" />
    <glyph glyph-name="copyright" unicode="&#xa9;" horiz-adv-x="799" 
d="M756 354c0 -100.667 -34.332 -185.333 -102.999 -254s-153.334 -103 -254.001 -103c-98.667 0 -182.5 34.667 -251.5 104s-103.5 153.333 -103.5 252c0 99.333 34.667 183.5 104 252.5s153.333 103.5 252 103.5c99.333 0 183.5 -34.333 252.5 -103
s103.5 -152.667 103.5 -252zM710.001 353.001c0 88.667 -30 163.5 -90 224.5s-133.333 91.5 -220 91.5c-85.333 0 -158.333 -31 -219 -93s-91 -136.667 -91 -224c0 -88 30 -162.5 90 -223.5s133 -91.5 219 -91.5s159.333 30.667 220 92s91 136 91 224zM534.001 265.001
c0 -52 -10.1689 -88.8301 -30.502 -110.497s-54.5 -32.5 -102.5 -32.5c-26 0 -49.333 4 -70 12c-25.333 9.33301 -43.5 25.166 -54.5 47.499s-16.5 54.166 -16.5 95.499v158c0 52.667 9.33301 90 28 112c22.667 28.667 60.334 43 113.001 43
c48 0 82.167 -10.833 102.5 -32.5s30.5 -58.167 30.5 -109.5v-35h-92v40c0 19.333 -3.33301 33.166 -10 41.499s-17.667 12.5 -33 12.5c-19.333 0 -32.666 -7 -39.999 -21c-4 -8 -6 -24.333 -6 -49v-162c0 -24.667 2 -41 6 -49c6.66699 -13.333 20 -20 40 -20
c15.333 0 26.333 4 33 12s10 22 10 42v44h92v-39z" />
    <glyph glyph-name="ordfeminine" unicode="&#xaa;" horiz-adv-x="229" 
d="M210 420l-68 0.00195312c-4.66699 8 -7.66699 16.333 -9 25c-16 -19.333 -33.667 -29 -53 -29c-11.333 0 -21 2.16699 -29 6.5s-13.833 8.66602 -17.5 12.999s-6.5 11.833 -8.5 22.5s-3 17.834 -3 21.501v24.5c0 25.333 3.83301 43.166 11.5 53.499
s29.5 24.166 65.5 41.499c14 6 25 11.333 33 16v23c0 17.333 -7.33301 26 -22 26s-22 -12.667 -22 -38v-10h-61v17c0 18.667 1.66699 31.334 5 38.001c13.333 27.333 39 41 77 41c24 0 45.167 -4.83301 63.5 -14.5s27.5 -26.834 27.5 -51.501v-174
c0 -26.667 3.33301 -44 10 -52zM131 482.002l-0.000976562 79.002l-28 -19c-7.33301 -4.66699 -11.833 -9.33398 -13.5 -14.001s-2.5 -13.334 -2.5 -26.001c0 -24 5 -36 15 -36c6.66699 0 16.334 5.33301 29.001 16z" />
    <glyph glyph-name="guillemotleft" unicode="&#xab;" horiz-adv-x="313" 
d="M278 127l-102 94v94l102 94v-97l-43 -45l43 -42v-98zM133 127l-102 93v92l102 97v-97l-39 -45l39 -40v-100z" />
    <glyph glyph-name="logicalnot" unicode="&#xac;" horiz-adv-x="559" 
d="M474 63h-120v186h-298v99h418v-285z" />
    <glyph glyph-name="registered" unicode="&#xae;" horiz-adv-x="799" 
d="M756 354c0 -100.667 -34.332 -185.333 -102.999 -254s-153.334 -103 -254.001 -103c-98.667 0 -182.5 34.667 -251.5 104s-103.5 153.333 -103.5 252c0 99.333 34.667 183.5 104 252.5s153.333 103.5 252 103.5c99.333 0 183.5 -34.333 252.5 -103
s103.5 -152.667 103.5 -252zM710.001 353.001c0 88.667 -30 163.5 -90 224.5s-133.333 91.5 -220 91.5c-85.333 0 -158.333 -31 -219 -93s-91 -136.667 -91 -224c0 -88 30 -162.5 90 -223.5s133 -91.5 219 -91.5s159.333 30.667 220 92s91 136 91 224zM558.001 130.001h-100
l-79 190h-26v-190h-91v449h150c44 0 75.167 -6.83301 93.5 -20.5s27.5 -37.167 27.5 -70.5v-69c0 -46.667 -21.667 -76 -65 -88zM443.001 443.001v23c0 24.667 -14 37 -42 37h-48v-107h44c17.333 0 29.333 3.5 36 10.5s10 19.167 10 36.5z" />
    <glyph glyph-name="macron" unicode="&#xaf;" horiz-adv-x="250" 
d="M259 590h-268v81h268v-81z" />
    <glyph glyph-name="degree" unicode="&#xb0;" horiz-adv-x="354" 
d="M338 594c0 -44.667 -15.667 -82.834 -47 -114.501s-69.333 -47.5 -114 -47.5s-82.667 15.833 -114 47.5s-47 69.834 -47 114.501s15.667 82.667 47 114s69.333 47 114 47c45.333 0 83.5 -15.5 114.5 -46.5s46.5 -69.167 46.5 -114.5zM256 596
c0 22 -7.66699 40.667 -23 56s-34 23 -56 23s-40.667 -7.66699 -56 -23s-23 -34 -23 -56c0 -21.333 7.83301 -39.833 23.5 -55.5s34.167 -23.5 55.5 -23.5c22 0 40.667 7.66699 56 23s23 34 23 56z" />
    <glyph glyph-name="plusminus" unicode="&#xb1;" horiz-adv-x="559" 
d="M477 315h-137v-157h-118v157h-139v101h139v157h118v-157h137v-101zM477 0h-394v101h394v-101z" />
    <glyph glyph-name="twosuperior" unicode="&#xb2;" horiz-adv-x="292" 
d="M269 224l-249 0.00390625v13c0 34 4.5 63.167 13.5 87.5s19 42.833 30 55.5s29.167 30 54.5 52c2.66699 2.66699 9.33398 8.66699 20.001 18s19.167 17.166 25.5 23.499s10.833 12.166 13.5 17.499c4.66699 8.66699 7 20 7 34v47c0 24 -12 36 -36 36
c-14.667 0 -25.5 -2.83301 -32.5 -8.5s-10.5 -15.834 -10.5 -30.501v-55h-76v56c0 66 37.333 99.667 112 101c62 0 100.667 -19.333 116 -58c4.66699 -10.667 7 -24.334 7 -41.001v-55c0 -26.667 -4.33301 -46.167 -13 -58.5s-35 -38.5 -79 -78.5
c-25.333 -22.667 -41.833 -39 -49.5 -49s-11.834 -22.333 -12.501 -37h159v-70z" />
    <glyph glyph-name="threesuperior" unicode="&#xb3;" horiz-adv-x="292" 
d="M266 320c0 -22.667 -5 -41.668 -15 -57.001s-22.833 -25.833 -38.5 -31.5s-28.167 -9.33398 -37.5 -11.001s-18 -2.5 -26 -2.5c-59.333 0 -98 18.667 -116 56c-5.33301 11.333 -8 23.333 -8 36v56h81v-49c0 -7.33301 0.666992 -13.166 2 -17.499s5 -8.5 11 -12.5
s14.333 -6 25 -6c16.667 0 27.667 2.5 33 7.5s8 13.5 8 25.5v65c0 10 -0.333008 17 -1 21s-2.5 9 -5.5 15s-8.33301 10.167 -16 12.5s-18.167 3.5 -31.5 3.5h-32v56h32c19.333 0 33.666 4.66699 42.999 14c2 2.66699 4.33301 7.66699 7 15
c1.33301 3.33301 2 10.666 2 21.999v36c0 22 -13 33 -39 33c-25.333 0 -38 -10 -38 -30v-47h-77v56c0 14.667 3.33301 27.667 10 39c18 30.667 54.333 46 109 46c50.667 0 85.334 -15 104.001 -45c8 -12 12 -28.333 12 -49v-41v-8.5v-10.5c0 -2 -0.333008 -5.33301 -1 -10
s-1.66699 -8.16699 -3 -10.5l-5.5 -9.5c-2.33301 -4 -5.33301 -7.16699 -9 -9.5s-8.16699 -5 -13.5 -8s-11.666 -5.5 -18.999 -7.5c16 -2 28.167 -7.16699 36.5 -15.5s13.166 -16.666 14.499 -24.999s2 -20.166 2 -35.499v-66z" />
    <glyph glyph-name="acute" unicode="&#xb4;" horiz-adv-x="250" 
d="M235 706l-133 -132h-87l67 132h153z" />
    <glyph glyph-name="mu" unicode="&#xb5;" horiz-adv-x="417" 
d="M396 0h-137.001l-3 42c-14 -29.333 -32.333 -44 -55 -44c-13.333 0 -25.666 5.33301 -36.999 16v-191h-120v689h120v-384c0 -30.667 14.333 -46 43 -46c30.667 0 46 19 46 57v373h120v-422c0 -47.333 7.66699 -77.333 23 -90z" />
    <glyph glyph-name="paragraph" unicode="&#xb6;" horiz-adv-x="597" 
d="M503 627l-36 0.00195312v-794h-85v794h-91v-794h-85v468c-18.667 5.33301 -32 9.66602 -40 12.999c-32 14 -57.167 37.167 -75.5 69.5s-27.5 69.833 -27.5 112.5c0 65.333 19.667 117 59 155c15.333 15.333 33.333 27.666 54 36.999c27.333 12 66 18 116 18h211v-79z" />
    <glyph glyph-name="periodcentered" unicode="&#xb7;" horiz-adv-x="187" 
d="M152 216h-117v130h117v-130z" />
    <glyph glyph-name="cedilla" unicode="&#xb8;" horiz-adv-x="250" 
d="M225 -121c0 -22.667 -9.66699 -40.668 -29 -54.001c-18.667 -12 -47.334 -18 -86.001 -18c-6.66699 0 -14.667 0.333008 -24 1s-17.333 1.33398 -24 2.00098s-10.334 1 -11.001 1c-5.33301 1.33301 -14 3.33301 -26 6v30c30.667 -4 51.667 -4 63 0
c8.66699 2.66699 14.834 6.66699 18.501 12s5.16699 10.333 4.5 15c0 8 -3 14.333 -9 19s-11.167 7.5 -15.5 8.5s-8.16602 1.5 -11.499 1.5v123h44v-79c44.667 0 75 -9.33301 91 -28c10 -10 15 -23.333 15 -40z" />
    <glyph glyph-name="onesuperior" unicode="&#xb9;" horiz-adv-x="292" 
d="M199 224h-81v332c-14 -10.667 -40 -19.667 -78 -27v66c27.333 8 47.5 16.833 60.5 26.5s27.833 24.167 44.5 43.5h54v-441z" />
    <glyph glyph-name="ordmasculine" unicode="&#xba;" horiz-adv-x="229" 
d="M204 499c0 -16.667 -2.33398 -29.668 -7.00098 -39.001c-15.333 -28.667 -43 -43 -83 -43c-59.333 0 -89 29 -89 87v127c0 54 30.667 81 92 81c42.667 0 70.334 -15.333 83.001 -46c2.66699 -7.33301 4 -19.666 4 -36.999v-130zM135.999 496.999v138v3
c-2.66699 20 -10 30.667 -22 32c-14 0 -21 -11 -21 -33v-140c0.666992 -0.666992 0.5 -3.5 -0.5 -8.5s0.333008 -10.333 4 -16s9.5 -8.5 17.5 -8.5c14.667 0 22 11 22 33z" />
    <glyph glyph-name="guillemotright" unicode="&#xbb;" horiz-adv-x="313" 
d="M281 224l-102 -97v97l40 45l-40 40v100l102 -93v-92zM137 221l-103 -94v97l43 45l-43 42v98l103 -94v-94z" />
    <glyph glyph-name="onequarter" unicode="&#xbc;" horiz-adv-x="708" 
d="M686 83h-27v-83h-75v83h-147v64l127 296h95v-294h27v-66zM519 692l-265 -737l-64 22l266 738zM199 224h-81v332c-14 -10.667 -40 -19.667 -78 -27v66c27.333 8 47.5 16.833 60.5 26.5s27.833 24.167 44.5 43.5h54v-441zM589 348l-82 -200h77z" />
    <glyph glyph-name="onehalf" unicode="&#xbd;" horiz-adv-x="708" 
d="M686 0l-249 0.00390625v13c0 34 4.5 63.167 13.5 87.5s19 42.833 30 55.5s29.167 30 54.5 52c2.66699 2.66699 9.33398 8.66699 20.001 18s19.167 17.166 25.5 23.499s10.833 12.166 13.5 17.499c4.66699 8.66699 7 20 7 34v47c0 24 -12 36 -36 36
c-14.667 0 -25.5 -2.83301 -32.5 -8.5s-10.5 -15.834 -10.5 -30.501v-55h-76v56c0 66 37.333 99.667 112 101c62 0 100.667 -19.333 116 -58c4.66699 -10.667 7 -24.334 7 -41.001v-55c0 -26.667 -4.33301 -46.167 -13 -58.5s-35 -38.5 -79 -78.5
c-25.333 -22.667 -41.833 -39 -49.5 -49s-11.834 -22.333 -12.501 -37h159v-70zM502 692.004l-266 -737l-63 22l265 738zM199 224.004h-81v332c-14 -10.667 -40 -19.667 -78 -27v66c27.333 8 47.5 16.833 60.5 26.5s27.833 24.167 44.5 43.5h54v-441z" />
    <glyph glyph-name="threequarters" unicode="&#xbe;" horiz-adv-x="708" 
d="M686 83h-27v-83h-75v83h-147v64l127 296h95v-294h27v-66zM546 692l-266 -737l-63 22l265 738zM266 320c0 -22.667 -5 -41.668 -15 -57.001s-22.833 -25.833 -38.5 -31.5s-28.167 -9.33398 -37.5 -11.001s-18 -2.5 -26 -2.5c-59.333 0 -98 18.667 -116 56
c-5.33301 11.333 -8 23.333 -8 36v56h81v-49c0 -7.33301 0.666992 -13.166 2 -17.499s5 -8.5 11 -12.5s14.333 -6 25 -6c16.667 0 27.667 2.5 33 7.5s8 13.5 8 25.5v65c0 10 -0.333008 17 -1 21s-2.5 9 -5.5 15s-8.33301 10.167 -16 12.5s-18.167 3.5 -31.5 3.5h-32v56h32
c19.333 0 33.666 4.66699 42.999 14c2 2.66699 4.33301 7.66699 7 15c1.33301 3.33301 2 10.666 2 21.999v36c0 22 -13 33 -39 33c-25.333 0 -38 -10 -38 -30v-47h-77v56c0 14.667 3.33301 27.667 10 39c18 30.667 54.333 46 109 46c50.667 0 85.334 -15 104.001 -45
c8 -12 12 -28.333 12 -49v-41v-8.5v-10.5c0 -2 -0.333008 -5.33301 -1 -10s-1.66699 -8.16699 -3 -10.5l-5.5 -9.5c-2.33301 -4 -5.33301 -7.16699 -9 -9.5s-8.16699 -5 -13.5 -8s-11.666 -5.5 -18.999 -7.5c16 -2 28.167 -7.16699 36.5 -15.5
s13.166 -16.666 14.499 -24.999s2 -20.166 2 -35.499v-66zM589 347.999l-82 -200h77z" />
    <glyph glyph-name="questiondown" unicode="&#xbf;" horiz-adv-x="417" 
d="M275 576h-117v130h117v-130zM351 170c0 -64.667 -9.3291 -108.335 -27.9961 -131.002c-26 -32 -70.667 -48 -134 -48c-74.667 -0.666992 -124 21 -148 65c-8.66699 15.333 -13 45 -13 89c0 60 5.33301 101 16 123c4.66699 8.66699 12.667 21.334 24 38.001l50 72
c15.333 22.667 26.166 40.334 32.499 53.001s9.83301 22 10.5 28s1 17.667 1 35v22h113v-45c0 -7.33301 -0.333008 -14.166 -1 -20.499s-1.83398 -12.5 -3.50098 -18.5s-2.83398 -10.833 -3.50098 -14.5s-2.66699 -8.5 -6 -14.5s-5.5 -9.66699 -6.5 -11
s-3.5 -5.33301 -7.5 -12s-6.33301 -10.334 -7 -11.001l-65 -102c-2 -3.33301 -4.83301 -7.66602 -8.5 -12.999s-6 -8.83301 -7 -10.5l-5 -8.5c-2.33301 -4 -3.83301 -7 -4.5 -9s-1.33398 -4.83301 -2.00098 -8.5s-1.16699 -7.33398 -1.5 -11.001s-0.5 -8.16699 -0.5 -13.5
v-59c0 -22.667 3.66699 -38.667 11 -48s19 -14 35 -14c32 0 48 18 48 54v117h111v-73z" />
    <glyph glyph-name="Agrave" unicode="&#xc0;" horiz-adv-x="437" 
d="M283 762h-86l-134 133h154zM428 0h-132l-17 115h-120l-19 -115h-130l137 706h149zM265 224l-43 303l-47 -303h90z" />
    <glyph glyph-name="Aacute" unicode="&#xc1;" horiz-adv-x="437" 
d="M376 897l-127 -134h-93l64 134h156zM428 0h-132l-17 115h-120l-19 -115h-130l137 706h149zM265 224l-43 303l-47 -303h90z" />
    <glyph glyph-name="Acircumflex" unicode="&#xc2;" horiz-adv-x="437" 
d="M367 762h-104l-44 73l-48 -73h-104l86 133h128zM428 0h-132l-17 115h-120l-19 -115h-130l137 706h149zM265 224l-43 303l-47 -303h90z" />
    <glyph glyph-name="Atilde" unicode="&#xc3;" horiz-adv-x="437" 
d="M388 886c-0.666992 -18.667 -1.49902 -33.168 -2.49902 -43.501s-4.5 -22.833 -10.5 -37.5s-15 -25.667 -27 -33c-13.333 -8.66699 -28.333 -13 -45 -13c-20 0 -49.667 9 -89 27c-22.667 11.333 -39 17 -49 17c-22.667 0 -37.334 -13.333 -44.001 -40h-65
c0.666992 24 3.5 44.167 8.5 60.5s14.833 30.833 29.5 43.5c16.667 14 36.334 21 59.001 21c21.333 0 49.666 -8 84.999 -24c26.667 -12.667 44.667 -19 54 -19c4.66699 0 9 1 13 3c8.66699 4.66699 15 17.334 19 38.001h64zM428.001 -0.000976562h-132l-17 115h-120
l-19 -115h-130l137 706h149zM265.001 223.999l-43 303l-47 -303h90z" />
    <glyph glyph-name="Adieresis" unicode="&#xc4;" horiz-adv-x="437" 
d="M386 762h-116v121h116v-121zM186 762h-117v121h117v-121zM428 0h-132l-17 115h-120l-19 -115h-130l137 706h149zM265 224l-43 303l-47 -303h90z" />
    <glyph glyph-name="Aring" unicode="&#xc5;" horiz-adv-x="437" 
d="M315 829c0 -24.667 -8.66699 -45.667 -26 -63s-38.333 -26 -63 -26s-45.667 8.83301 -63 26.5s-26 38.834 -26 63.501s8.66699 45.667 26 63s38.333 26 63 26s45.667 -8.83301 63 -26.5s26 -38.834 26 -63.501zM428 0h-132l-17 115h-120l-19 -115h-130l137 706h149z
M267 828c-0.666992 11.333 -4.99902 21 -12.999 29s-17.667 12 -29 12s-21 -4 -29 -12s-12 -17.667 -12 -29s4.16699 -21 12.5 -29s18.166 -12 29.499 -12c10.667 0 20.167 4.16699 28.5 12.5s12.5 17.833 12.5 28.5zM265.001 224l-43 303l-47 -303h90z" />
    <glyph glyph-name="AE" unicode="&#xc6;" horiz-adv-x="708" 
d="M686 0h-356v146h-138l-49 -146h-140l262 706h420v-109h-225v-163h212v-106h-212v-219h226v-109zM330 253v300l-102 -300h102z" />
    <glyph glyph-name="Ccedilla" unicode="&#xc7;" horiz-adv-x="458" 
d="M430 166c0 -14.667 -0.333008 -26.3369 -1 -35.0039c-4.66699 -72 -41.334 -117.333 -110.001 -136c-11.333 -3.33301 -32 -6.33301 -62 -9v-42c70 0 105.333 -22.333 106 -67c0.666992 -24 -9.33301 -42.167 -30 -54.5s-49 -18.5 -85 -18.5
c-32 0 -60.333 3.33301 -85 10v30c5.33301 -1.33301 17.666 -2 36.999 -2c32 0 48.333 9.33301 49 28c0.666992 5.33301 -0.166016 10 -2.49902 14s-5.33301 7 -9 9s-7.16699 3.5 -10.5 4.5s-6.33301 1.83301 -9 2.5l-5 1v86c-34 3.33301 -59 8 -75 14
c-26 9.33301 -46.333 22.333 -61 39s-23.834 33.334 -27.501 50.001s-5.5 36.667 -5.5 60l1 395c0 40.667 4.66699 70.334 14 89.001c28 56.667 87.667 85.667 179 87c92 0 151.667 -27 179 -81c8.66699 -17.333 13 -42.333 13 -75v-116h-128v89c0 14 -0.5 25 -1.5 33
s-3.66699 16.333 -8 25s-11.166 15 -20.499 19s-21.333 6 -36 6c-25.333 0 -41.833 -6.66699 -49.5 -20s-11.5 -32.333 -11.5 -57v-378c0 -25.333 4.33301 -45.166 13 -59.499s26 -21.166 52 -20.499c14.667 0 26.5 2 35.5 6s15.333 10.667 19 20s5.83398 17.333 6.50098 24
s1 16.667 1 30v7v92h128v-99z" />
    <glyph glyph-name="Egrave" unicode="&#xc8;" horiz-adv-x="417" 
d="M273 762h-87l-133 133h153zM402 0h-352v706h342v-107h-212v-166h200v-107h-200v-217h222v-109z" />
    <glyph glyph-name="Eacute" unicode="&#xc9;" horiz-adv-x="417" 
d="M365 897l-127 -134h-92l64 134h155zM402 0h-352v706h342v-107h-212v-166h200v-107h-200v-217h222v-109z" />
    <glyph glyph-name="Ecircumflex" unicode="&#xca;" horiz-adv-x="417" 
d="M357 762h-105l-44 73l-48 -73h-104l86 133h129zM402 0h-352v706h342v-107h-212v-166h200v-107h-200v-217h222v-109z" />
    <glyph glyph-name="Edieresis" unicode="&#xcb;" horiz-adv-x="417" 
d="M369 762h-116v121h116v-121zM169 762h-117v121h117v-121zM402 0h-352v706h342v-107h-212v-166h200v-107h-200v-217h222v-109z" />
    <glyph glyph-name="Igrave" unicode="&#xcc;" horiz-adv-x="229" 
d="M179 762h-86l-134 133h154zM179 0h-129v706h129v-706z" />
    <glyph glyph-name="Iacute" unicode="&#xcd;" horiz-adv-x="229" 
d="M271 897l-126 -134h-93l64 134h155zM179 0h-129v706h129v-706z" />
    <glyph glyph-name="Icircumflex" unicode="&#xce;" horiz-adv-x="229" 
d="M263 762h-104l-44 73l-48 -73h-105l86 133h129zM179 0h-129v706h129v-706z" />
    <glyph glyph-name="Idieresis" unicode="&#xcf;" horiz-adv-x="229" 
d="M276 762h-116v121h116v-121zM75 762h-117v121h117v-121zM179 0h-129v706h129v-706z" />
    <glyph glyph-name="Eth" unicode="&#xd0;" horiz-adv-x="479" 
d="M438 190c0 -21.333 -0.333008 -37.835 -1 -49.502s-4.16699 -27.167 -10.5 -46.5s-15.833 -35.666 -28.5 -48.999c-28 -30 -74.333 -45 -139 -45h-209v334h-50v72h50v300h210c34.667 0 61 -3 79 -9c42 -14 71 -41.333 87 -82c7.33301 -20 11 -43.333 11 -70
c0 -2.66699 0.166992 -6.66699 0.5 -12s0.5 -9.66602 0.5 -12.999v-330zM308 178.998v352.001c0 27.333 -4.83301 46.166 -14.5 56.499s-28.167 15.5 -55.5 15.5h-58v-197h77v-72h-77v-231h46c31.333 0 52.833 4.83301 64.5 14.5s17.5 30.167 17.5 61.5z" />
    <glyph glyph-name="Ntilde" unicode="&#xd1;" horiz-adv-x="500" 
d="M419 886c-0.666992 -18.667 -1.5 -33.168 -2.5 -43.501s-4.5 -22.833 -10.5 -37.5s-14.667 -25.667 -26 -33c-15.333 -8.66699 -30.666 -13 -45.999 -13c-23.333 0 -53 9 -89 27c-24 11.333 -40.333 17 -49 17c-22.667 0 -37.334 -13.667 -44.001 -41l-65 1
c1.33301 24.667 4.5 45 9.5 61s14.833 30.333 29.5 43c16 14 35.667 21 59 21c20.667 0 48.667 -8 84 -24c26.667 -12.667 44.667 -19 54 -19c4.66699 0 9 1 13 3c8.66699 4.66699 15 17.334 19 38.001h64zM450 -0.000976562h-164l-125 529l11 -529h-122v706h167l127 -518
l-13 518h119v-706z" />
    <glyph glyph-name="Ograve" unicode="&#xd2;" horiz-adv-x="479" 
d="M304 762h-86l-134 133h154zM435 151c0 -52.667 -13.666 -92.333 -40.999 -119c-34 -31.333 -85 -47 -153 -47c-64 0 -113 13.667 -147 41c-17.333 14 -29 28.667 -35 44c-10 20.667 -15 47.667 -15 81v396c0 59.333 14.667 102 44 128c34.667 30.667 86 46 154 46
c47.333 0 85.666 -8 114.999 -24s50 -35.667 62 -59c10.667 -22 16 -53.333 16 -94v-393zM304.001 170.001l-0.000976562 364.998c0 28 -2.66699 47 -8 57c-9.33301 20.667 -27.333 31 -54 31c-16.667 0 -30.667 -4.33301 -42 -13c-4 -2.66699 -7.5 -5.66699 -10.5 -9
s-5.33301 -7 -7 -11l-4.5 -10.5c-1.33301 -3 -2.16602 -7.16699 -2.49902 -12.5s-0.5 -9.16602 -0.5 -11.499v-13.5v-12v-357c0 -32 4 -53.667 12 -65c10 -14 27.667 -21 53 -21c16 0 29.667 4 41 12c7.33301 5.33301 12.833 12.5 16.5 21.5s5.66699 16.333 6 22
s0.5 14.834 0.5 27.501z" />
    <glyph glyph-name="Oacute" unicode="&#xd3;" horiz-adv-x="479" 
d="M396 897l-126 -134h-93l64 134h155zM435 151c0 -52.667 -13.666 -92.333 -40.999 -119c-34 -31.333 -85 -47 -153 -47c-64 0 -113 13.667 -147 41c-17.333 14 -29 28.667 -35 44c-10 20.667 -15 47.667 -15 81v396c0 59.333 14.667 102 44 128
c34.667 30.667 86 46 154 46c47.333 0 85.666 -8 114.999 -24s50 -35.667 62 -59c10.667 -22 16 -53.333 16 -94v-393zM304.001 170.001l-0.000976562 364.998c0 28 -2.66699 47 -8 57c-9.33301 20.667 -27.333 31 -54 31c-16.667 0 -30.667 -4.33301 -42 -13
c-4 -2.66699 -7.5 -5.66699 -10.5 -9s-5.33301 -7 -7 -11l-4.5 -10.5c-1.33301 -3 -2.16602 -7.16699 -2.49902 -12.5s-0.5 -9.16602 -0.5 -11.499v-13.5v-12v-357c0 -32 4 -53.667 12 -65c10 -14 27.667 -21 53 -21c16 0 29.667 4 41 12
c7.33301 5.33301 12.833 12.5 16.5 21.5s5.66699 16.333 6 22s0.5 14.834 0.5 27.501z" />
    <glyph glyph-name="Ocircumflex" unicode="&#xd4;" horiz-adv-x="479" 
d="M388 762h-104l-44 73l-48 -73h-105l86 133h129zM435 151c0 -52.667 -13.666 -92.333 -40.999 -119c-34 -31.333 -85 -47 -153 -47c-64 0 -113 13.667 -147 41c-17.333 14 -29 28.667 -35 44c-10 20.667 -15 47.667 -15 81v396c0 59.333 14.667 102 44 128
c34.667 30.667 86 46 154 46c47.333 0 85.666 -8 114.999 -24s50 -35.667 62 -59c10.667 -22 16 -53.333 16 -94v-393zM304.001 170.001l-0.000976562 364.998c0 28 -2.66699 47 -8 57c-9.33301 20.667 -27.333 31 -54 31c-16.667 0 -30.667 -4.33301 -42 -13
c-4 -2.66699 -7.5 -5.66699 -10.5 -9s-5.33301 -7 -7 -11l-4.5 -10.5c-1.33301 -3 -2.16602 -7.16699 -2.49902 -12.5s-0.5 -9.16602 -0.5 -11.499v-13.5v-12v-357c0 -32 4 -53.667 12 -65c10 -14 27.667 -21 53 -21c16 0 29.667 4 41 12
c7.33301 5.33301 12.833 12.5 16.5 21.5s5.66699 16.333 6 22s0.5 14.834 0.5 27.501z" />
    <glyph glyph-name="Otilde" unicode="&#xd5;" horiz-adv-x="479" 
d="M409 886c-0.666992 -18.667 -1.49902 -33.167 -2.49902 -43.5s-4.5 -22.833 -10.5 -37.5s-15 -25.667 -27 -33c-12.667 -8.66699 -27.667 -13 -45 -13c-20 0 -49.667 9 -89 27c-22.667 11.333 -39.334 17 -50.001 17c-22 0 -36.333 -13.667 -43 -41l-65 1
c0.666992 24 3.5 44.167 8.5 60.5s14.833 30.833 29.5 43.5c16.667 14 36.334 21 59.001 21c20.667 0 48.667 -8 84 -24c27.333 -12.667 45.666 -19 54.999 -19c4.66699 0 9 1 13 3c8 4 14.333 16.667 19 38h64zM435.001 151c0 -52.667 -13.666 -92.333 -40.999 -119
c-34 -31.333 -85 -47 -153 -47c-64 0 -113 13.667 -147 41c-17.333 14 -29 28.667 -35 44c-10 20.667 -15 47.667 -15 81v396c0 59.333 14.667 102 44 128c34.667 30.667 86 46 154 46c47.333 0 85.666 -8 114.999 -24s50 -35.667 62 -59c10.667 -22 16 -53.333 16 -94v-393
zM304.002 170.001l-0.000976562 364.998c0 28 -2.66699 47 -8 57c-9.33301 20.667 -27.333 31 -54 31c-16.667 0 -30.667 -4.33301 -42 -13c-4 -2.66699 -7.5 -5.66699 -10.5 -9s-5.33301 -7 -7 -11l-4.5 -10.5c-1.33301 -3 -2.16602 -7.16699 -2.49902 -12.5
s-0.5 -9.16602 -0.5 -11.499v-13.5v-12v-357c0 -32 4 -53.667 12 -65c10 -14 27.667 -21 53 -21c16 0 29.667 4 41 12c7.33301 5.33301 12.833 12.5 16.5 21.5s5.66699 16.333 6 22s0.5 14.834 0.5 27.501z" />
    <glyph glyph-name="Odieresis" unicode="&#xd6;" horiz-adv-x="479" 
d="M401 762h-116v121h116v-121zM200 762h-117v121h117v-121zM435 151c0 -52.667 -13.666 -92.333 -40.999 -119c-34 -31.333 -85 -47 -153 -47c-64 0 -113 13.667 -147 41c-17.333 14 -29 28.667 -35 44c-10 20.667 -15 47.667 -15 81v396c0 59.333 14.667 102 44 128
c34.667 30.667 86 46 154 46c47.333 0 85.666 -8 114.999 -24s50 -35.667 62 -59c10.667 -22 16 -53.333 16 -94v-393zM304.001 170.001l-0.000976562 364.998c0 28 -2.66699 47 -8 57c-9.33301 20.667 -27.333 31 -54 31c-16.667 0 -30.667 -4.33301 -42 -13
c-4 -2.66699 -7.5 -5.66699 -10.5 -9s-5.33301 -7 -7 -11l-4.5 -10.5c-1.33301 -3 -2.16602 -7.16699 -2.49902 -12.5s-0.5 -9.16602 -0.5 -11.499v-13.5v-12v-357c0 -32 4 -53.667 12 -65c10 -14 27.667 -21 53 -21c16 0 29.667 4 41 12
c7.33301 5.33301 12.833 12.5 16.5 21.5s5.66699 16.333 6 22s0.5 14.834 0.5 27.501z" />
    <glyph glyph-name="multiply" unicode="&#xd7;" horiz-adv-x="558" 
d="M472 205l-79 -90l-115 107l-99 -108l-75 67l100 109l-116 106l81 88l115 -106l99 107l73 -69l-98 -107z" />
    <glyph glyph-name="Oslash" unicode="&#xd8;" horiz-adv-x="479" 
d="M447 693l-33.0029 -64.999c13.333 -22 20 -46 20 -72v-403c0 -22 -2.66699 -42 -8 -60c-9.33301 -28.667 -28.666 -53.834 -57.999 -75.501s-69.666 -32.5 -120.999 -32.5c-50.667 0 -95.667 14.333 -135 43l-20 -39l-59 31l33 62c-13.333 22.667 -20 48 -20 76v395
c0 43.333 11 78 33 104c36.667 42.667 89 64 157 64c52.667 0 97.334 -12.667 134.001 -38l20 38zM302.997 545.001v19c0 12.667 -2.33301 23 -7 31c-8.66699 16 -26 24 -52 24c-15.333 0 -29 -3.66699 -41 -11c-16.667 -10.667 -25 -36 -25 -76v-228zM302.997 170.001v232
l-125 -241v-16c0 -8 2.33301 -17.333 7 -28c9.33301 -18.667 27.333 -28 54 -28c17.333 0 31.333 4 42 12c14.667 11.333 22 34.333 22 69z" />
    <glyph glyph-name="Ugrave" unicode="&#xd9;" horiz-adv-x="479" 
d="M304 762h-86l-134 133h154zM431 159c0 -48 -10.6631 -85.6689 -31.9961 -113.002c-31.333 -40.667 -85.666 -61 -162.999 -61c-64 0 -112 17 -144 51c-12.667 12.667 -22.667 28.667 -30 48c-8.66699 21.333 -13 47.333 -13 78v544h130v-525
c0 -25.333 2.33301 -43.666 7 -54.999c8.66699 -20 26.667 -30 54 -30c15.333 0 28 3.66699 38 11c3.33301 2 6.16602 4.33301 8.49902 7s4.16602 5.33398 5.49902 8.00098s2.66602 6 3.99902 10s2.16602 7.16699 2.49902 9.5s0.666016 5.83301 0.999023 10.5s0.5 8 0.5 10
v10.5v9.5v524h131v-547z" />
    <glyph glyph-name="Uacute" unicode="&#xda;" horiz-adv-x="479" 
d="M396 897l-126 -134h-93l64 134h155zM431 159c0 -48 -10.6631 -85.6689 -31.9961 -113.002c-31.333 -40.667 -85.666 -61 -162.999 -61c-64 0 -112 17 -144 51c-12.667 12.667 -22.667 28.667 -30 48c-8.66699 21.333 -13 47.333 -13 78v544h130v-525
c0 -25.333 2.33301 -43.666 7 -54.999c8.66699 -20 26.667 -30 54 -30c15.333 0 28 3.66699 38 11c3.33301 2 6.16602 4.33301 8.49902 7s4.16602 5.33398 5.49902 8.00098s2.66602 6 3.99902 10s2.16602 7.16699 2.49902 9.5s0.666016 5.83301 0.999023 10.5s0.5 8 0.5 10
v10.5v9.5v524h131v-547z" />
    <glyph glyph-name="Ucircumflex" unicode="&#xdb;" horiz-adv-x="479" 
d="M388 762h-104l-44 73l-48 -73h-105l86 133h129zM431 159c0 -48 -10.6631 -85.6689 -31.9961 -113.002c-31.333 -40.667 -85.666 -61 -162.999 -61c-64 0 -112 17 -144 51c-12.667 12.667 -22.667 28.667 -30 48c-8.66699 21.333 -13 47.333 -13 78v544h130v-525
c0 -25.333 2.33301 -43.666 7 -54.999c8.66699 -20 26.667 -30 54 -30c15.333 0 28 3.66699 38 11c3.33301 2 6.16602 4.33301 8.49902 7s4.16602 5.33398 5.49902 8.00098s2.66602 6 3.99902 10s2.16602 7.16699 2.49902 9.5s0.666016 5.83301 0.999023 10.5s0.5 8 0.5 10
v10.5v9.5v524h131v-547z" />
    <glyph glyph-name="Udieresis" unicode="&#xdc;" horiz-adv-x="479" 
d="M402 762h-116v121h116v-121zM201 762h-117v121h117v-121zM431 159c0 -48 -10.6631 -85.6689 -31.9961 -113.002c-31.333 -40.667 -85.666 -61 -162.999 -61c-64 0 -112 17 -144 51c-12.667 12.667 -22.667 28.667 -30 48c-8.66699 21.333 -13 47.333 -13 78v544h130v-525
c0 -25.333 2.33301 -43.666 7 -54.999c8.66699 -20 26.667 -30 54 -30c15.333 0 28 3.66699 38 11c3.33301 2 6.16602 4.33301 8.49902 7s4.16602 5.33398 5.49902 8.00098s2.66602 6 3.99902 10s2.16602 7.16699 2.49902 9.5s0.666016 5.83301 0.999023 10.5s0.5 8 0.5 10
v10.5v9.5v524h131v-547z" />
    <glyph glyph-name="Yacute" unicode="&#xdd;" horiz-adv-x="417" 
d="M365 897l-127 -134h-92l64 134h155zM416 706l-141 -497v-209h-133v218l-141 488h137l72 -356l69 356h137z" />
    <glyph glyph-name="Thorn" unicode="&#xde;" horiz-adv-x="458" 
d="M431 337v-17.5v-21.5c0 -3.33301 -0.5 -10.333 -1.5 -21s-2.33301 -18.5 -4 -23.5l-7 -20.5c-3 -8.66699 -6.83301 -15.5 -11.5 -20.5s-10.5 -10 -17.5 -15s-14.833 -9.16699 -23.5 -12.5c-16.667 -6 -41.667 -9 -75 -9h-110v-176h-131v706h131v-117h131
c46.667 0 78.167 -12.333 94.5 -37s24.5 -60 24.5 -106v-109zM303 335v95.999c0 35.333 -16.667 53 -50 53h-72v-207h63c12.667 0 20.667 0.166992 24 0.5s8.83301 2 16.5 5s12.667 8.83301 15 17.5s3.5 20.334 3.5 35.001z" />
    <glyph glyph-name="germandbls" unicode="&#xdf;" horiz-adv-x="417" 
d="M381 116c0 -22.667 -1.99707 -40.335 -5.99707 -53.002c-14 -48 -53 -72 -117 -72c-16.667 0 -39.334 3 -68.001 9l1 69c16.667 -2 26.667 -2.66699 30 -2c6 0 11.167 0.833008 15.5 2.5s8 3.66699 11 6s5.66699 5.33301 8 9s4 6.83398 5 9.50098s1.66699 6.16699 2 10.5
s0.5 7.5 0.5 9.5v8v5v183c0 24 -4 41.333 -12 52s-23.667 16 -47 16h-18v81h14c21.333 0 35.666 3.5 42.999 10.5s11 21.833 11 44.5v73c0 32.667 -15 49 -45 49c-22.667 0 -36.667 -6.33301 -42 -19c-2.66699 -5.33301 -4 -14 -4 -26v-591h-119v589
c0 38.667 7.66699 67.334 23 86.001c24.667 30.667 68.667 46 132 46c19.333 0 33.666 -0.666992 42.999 -2c56 -6.66699 92 -28.667 108 -66c6.66699 -16.667 10 -36.667 10 -60v-65c0 -35.333 -3.66699 -58.5 -11 -69.5s-27.333 -19.5 -60 -25.5
c13.333 -2 22.666 -3.66699 27.999 -5s13 -3.83301 23 -7.5s17.833 -8.66699 23.5 -15s9.83398 -14.5 12.501 -24.5c3.33301 -12 5 -35.333 5 -70v-195z" />
    <glyph glyph-name="agrave" unicode="&#xe0;" 
d="M262 574h-86l-133 132h153zM375 0l-125 -0.00488281c-7.33301 8.66699 -12 23.667 -14 45c-1.33301 -1.33301 -4 -4.33301 -8 -9s-7.33301 -8 -10 -10c-24.667 -24.667 -53 -37 -85 -37c-24.667 0 -45.334 6.33301 -62.001 19c-12 8.66699 -21.167 21.334 -27.5 38.001
s-9.83301 30.834 -10.5 42.501s-1 27.834 -1 48.501v8v7c0 46.667 8 79.334 24 98.001c10 12.667 28 25.334 54 38.001l124 62v30c0 28.667 -5.33301 46.667 -16 54c-8 4.66699 -16.667 7 -26 7c-18.667 0 -31 -6.66699 -37 -20c-2.66699 -6 -4 -22 -4 -48v-19h-109v58
c0 30 9.66699 54.333 29 73c25.333 25.333 68.333 38 129 38c70 0 116.667 -21.333 140 -64c8 -14 12 -30.333 12 -49v-285c0 -63.333 5 -102 15 -116c0.666992 -2.66699 3.33398 -5.66699 8.00098 -9zM233 107.995l-0.000976562 150.002l-58 -38
c-5.33301 -4 -8.66602 -6.66699 -9.99902 -8c-11.333 -10.667 -17 -35.334 -17 -74.001c0 -20.667 2 -35.834 6 -45.501s11.667 -14.167 23 -13.5c14.667 0 29 6 43 18z" />
    <glyph glyph-name="aacute" unicode="&#xe1;" 
d="M344 706l-133 -132h-87l67 132h153zM375 0l-125 -0.00488281c-7.33301 8.66699 -12 23.667 -14 45c-1.33301 -1.33301 -4 -4.33301 -8 -9s-7.33301 -8 -10 -10c-24.667 -24.667 -53 -37 -85 -37c-24.667 0 -45.334 6.33301 -62.001 19
c-12 8.66699 -21.167 21.334 -27.5 38.001s-9.83301 30.834 -10.5 42.501s-1 27.834 -1 48.501v8v7c0 46.667 8 79.334 24 98.001c10 12.667 28 25.334 54 38.001l124 62v30c0 28.667 -5.33301 46.667 -16 54c-8 4.66699 -16.667 7 -26 7c-18.667 0 -31 -6.66699 -37 -20
c-2.66699 -6 -4 -22 -4 -48v-19h-109v58c0 30 9.66699 54.333 29 73c25.333 25.333 68.333 38 129 38c70 0 116.667 -21.333 140 -64c8 -14 12 -30.333 12 -49v-285c0 -63.333 5 -102 15 -116c0.666992 -2.66699 3.33398 -5.66699 8.00098 -9zM233 107.995
l-0.000976562 150.002l-58 -38c-5.33301 -4 -8.66602 -6.66699 -9.99902 -8c-11.333 -10.667 -17 -35.334 -17 -74.001c0 -20.667 2 -35.834 6 -45.501s11.667 -14.167 23 -13.5c14.667 0 29 6 43 18z" />
    <glyph glyph-name="acircumflex" unicode="&#xe2;" 
d="M347 574h-105l-44 73l-48 -73h-104l86 132h129zM375 0l-125 -0.00488281c-7.33301 8.66699 -12 23.667 -14 45c-1.33301 -1.33301 -4 -4.33301 -8 -9s-7.33301 -8 -10 -10c-24.667 -24.667 -53 -37 -85 -37c-24.667 0 -45.334 6.33301 -62.001 19
c-12 8.66699 -21.167 21.334 -27.5 38.001s-9.83301 30.834 -10.5 42.501s-1 27.834 -1 48.501v8v7c0 46.667 8 79.334 24 98.001c10 12.667 28 25.334 54 38.001l124 62v30c0 28.667 -5.33301 46.667 -16 54c-8 4.66699 -16.667 7 -26 7c-18.667 0 -31 -6.66699 -37 -20
c-2.66699 -6 -4 -22 -4 -48v-19h-109v58c0 30 9.66699 54.333 29 73c25.333 25.333 68.333 38 129 38c70 0 116.667 -21.333 140 -64c8 -14 12 -30.333 12 -49v-285c0 -63.333 5 -102 15 -116c0.666992 -2.66699 3.33398 -5.66699 8.00098 -9zM233 107.995
l-0.000976562 150.002l-58 -38c-5.33301 -4 -8.66602 -6.66699 -9.99902 -8c-11.333 -10.667 -17 -35.334 -17 -74.001c0 -20.667 2 -35.834 6 -45.501s11.667 -14.167 23 -13.5c14.667 0 29 6 43 18z" />
    <glyph glyph-name="atilde" unicode="&#xe3;" 
d="M367 697c-0.666992 -18.667 -1.49805 -33.1689 -2.49805 -43.502s-4.5 -22.666 -10.5 -36.999s-15 -25.166 -27 -32.499c-14 -9.33301 -29 -14 -45 -14c-20 0.666992 -49.667 10 -89 28c-24 11.333 -40.333 17 -49 17c-22.667 -0.666992 -37.334 -14.334 -44.001 -41.001
h-65c1.33301 24.667 4.33301 45.167 9 61.5s14.334 30.833 29.001 43.5c16.667 14 36.667 21 60 21c20.667 0 48.667 -8.33301 84 -25c28.667 -12.667 46.667 -19 54 -19c3.33301 0 7.66602 1.33301 12.999 4c9.33301 4.66699 15.666 17.334 18.999 38.001z
M375.002 -0.00195312l-125 -0.00488281c-7.33301 8.66699 -12 23.667 -14 45c-1.33301 -1.33301 -4 -4.33301 -8 -9s-7.33301 -8 -10 -10c-24.667 -24.667 -53 -37 -85 -37c-24.667 0 -45.334 6.33301 -62.001 19c-12 8.66699 -21.167 21.334 -27.5 38.001
s-9.83301 30.834 -10.5 42.501s-1 27.834 -1 48.501v8v7c0 46.667 8 79.334 24 98.001c10 12.667 28 25.334 54 38.001l124 62v30c0 28.667 -5.33301 46.667 -16 54c-8 4.66699 -16.667 7 -26 7c-18.667 0 -31 -6.66699 -37 -20c-2.66699 -6 -4 -22 -4 -48v-19h-109v58
c0 30 9.66699 54.333 29 73c25.333 25.333 68.333 38 129 38c70 0 116.667 -21.333 140 -64c8 -14 12 -30.333 12 -49v-285c0 -63.333 5 -102 15 -116c0.666992 -2.66699 3.33398 -5.66699 8.00098 -9zM233.002 107.993l-0.000976562 150.002l-58 -38
c-5.33301 -4 -8.66602 -6.66699 -9.99902 -8c-11.333 -10.667 -17 -35.334 -17 -74.001c0 -20.667 2 -35.834 6 -45.501s11.667 -14.167 23 -13.5c14.667 0 29 6 43 18z" />
    <glyph glyph-name="adieresis" unicode="&#xe4;" 
d="M348 595h-119v124h119v-124zM165 595h-119v124h119v-124zM375 0l-125 -0.00488281c-7.33301 8.66699 -12 23.667 -14 45c-1.33301 -1.33301 -4 -4.33301 -8 -9s-7.33301 -8 -10 -10c-24.667 -24.667 -53 -37 -85 -37c-24.667 0 -45.334 6.33301 -62.001 19
c-12 8.66699 -21.167 21.334 -27.5 38.001s-9.83301 30.834 -10.5 42.501s-1 27.834 -1 48.501v8v7c0 46.667 8 79.334 24 98.001c10 12.667 28 25.334 54 38.001l124 62v30c0 28.667 -5.33301 46.667 -16 54c-8 4.66699 -16.667 7 -26 7c-18.667 0 -31 -6.66699 -37 -20
c-2.66699 -6 -4 -22 -4 -48v-19h-109v58c0 30 9.66699 54.333 29 73c25.333 25.333 68.333 38 129 38c70 0 116.667 -21.333 140 -64c8 -14 12 -30.333 12 -49v-285c0 -63.333 5 -102 15 -116c0.666992 -2.66699 3.33398 -5.66699 8.00098 -9zM233 107.995
l-0.000976562 150.002l-58 -38c-5.33301 -4 -8.66602 -6.66699 -9.99902 -8c-11.333 -10.667 -17 -35.334 -17 -74.001c0 -20.667 2 -35.834 6 -45.501s11.667 -14.167 23 -13.5c14.667 0 29 6 43 18z" />
    <glyph glyph-name="aring" unicode="&#xe5;" 
d="M292 661c0 -24 -8.83301 -44.835 -26.5 -62.502s-38.834 -26.5 -63.501 -26.5s-45.667 8.83301 -63 26.5s-26 38.834 -26 63.501s8.83301 45.667 26.5 63s38.834 26 63.501 26s45.667 -8.66699 63 -26s26 -38.666 26 -63.999zM375 -0.00195312l-125 -0.00488281
c-7.33301 8.66699 -12 23.667 -14 45c-1.33301 -1.33301 -4 -4.33301 -8 -9s-7.33301 -8 -10 -10c-24.667 -24.667 -53 -37 -85 -37c-24.667 0 -45.334 6.33301 -62.001 19c-12 8.66699 -21.167 21.334 -27.5 38.001s-9.83301 30.834 -10.5 42.501s-1 27.834 -1 48.501v8v7
c0 46.667 8 79.334 24 98.001c10 12.667 28 25.334 54 38.001l124 62v30c0 28.667 -5.33301 46.667 -16 54c-8 4.66699 -16.667 7 -26 7c-18.667 0 -31 -6.66699 -37 -20c-2.66699 -6 -4 -22 -4 -48v-19h-109v58c0 30 9.66699 54.333 29 73c25.333 25.333 68.333 38 129 38
c70 0 116.667 -21.333 140 -64c8 -14 12 -30.333 12 -49v-285c0 -63.333 5 -102 15 -116c0.666992 -2.66699 3.33398 -5.66699 8.00098 -9zM243 659.993c0 12 -3.99902 21.833 -11.999 29.5s-17.667 11.5 -29 11.5s-21 -4 -29 -12s-12 -17.667 -12 -29s4.16699 -21 12.5 -29
s18.166 -12 29.499 -12c10.667 0 20 4 28 12s12 17.667 12 29zM233.001 107.993l-0.000976562 150.002l-58 -38c-5.33301 -4 -8.66602 -6.66699 -9.99902 -8c-11.333 -10.667 -17 -35.334 -17 -74.001c0 -20.667 2 -35.834 6 -45.501s11.667 -14.167 23 -13.5
c14.667 0 29 6 43 18z" />
    <glyph glyph-name="ae" unicode="&#xe6;" horiz-adv-x="604" 
d="M570 229l-212.005 0.00292969v-91c0 -14.667 0.333008 -23.334 1 -26.001c6 -20 21 -30 45 -30c18.667 0 31.334 5.66699 38.001 17c5.33301 7.33301 8 20 8 38v33h119v-35c0 -56 -17.333 -95.667 -52 -119c-27.333 -18 -63.333 -27 -108 -27c-25.333 0 -46.333 3 -63 9
s-37 16.667 -61 32c-44.667 -26.667 -87.334 -40 -128.001 -40c-7.33301 0 -14.833 0.5 -22.5 1.5s-19 3.5 -34 7.5s-28.167 11.5 -39.5 22.5s-19.333 24.833 -24 41.5c-4 16.667 -6 48 -6 94c0 37.333 5.66699 64.666 17 81.999c2.66699 4 6.16699 8.16699 10.5 12.5
s8.83301 8.16602 13.5 11.499s9.33398 6.5 14.001 9.5s9.33398 5.66699 14.001 8s8.5 4.33301 11.5 6s5.83301 3.16699 8.5 4.5l5 2l114 47v43c0 18.667 -5.66699 31.667 -17 39c-7.33301 5.33301 -16.333 8 -27 8c-30.667 0 -46 -16.667 -46 -50v-31h-107v56
c0 34 9.66699 60.667 29 80c24.667 24.667 61.334 37 110.001 37c30.667 0 59 -4.66699 85 -14c15.333 -6 27 -11 35 -15c2 1.33301 5.5 3.33301 10.5 6l11.5 6c23.333 11.333 55 17 95 17c8.66699 0 18.167 -0.833008 28.5 -2.5s23.333 -5 39 -10s30.334 -14 44.001 -27
s23.834 -28.833 30.501 -47.5c6.66699 -18 10 -35.333 10 -52v-154zM448.995 309.003v63.999c0 24 -5.66699 40 -17 48c-8.66699 5.33301 -18 8 -28 8c-21.333 0 -35.333 -8.33301 -42 -25c-2.66699 -7.33301 -4 -16.666 -4 -27.999v-67h91zM237.995 108.002
l-0.000976562 142.999c-25.333 -10.667 -41.333 -18 -48 -22c-5.33301 -3.33301 -10.333 -6.66602 -15 -9.99902s-8.5 -6.83301 -11.5 -10.5l-8 -10c-2.33301 -3 -4.16602 -6.83301 -5.49902 -11.5s-2.5 -8.16699 -3.5 -10.5s-1.66699 -6 -2 -11s-0.5 -8.16699 -0.5 -9.5
v-9.5v-8.5c0 -38 14.333 -57 43 -57c18.667 0 35.667 9 51 27z" />
    <glyph glyph-name="ccedilla" unicode="&#xe7;" 
d="M367 145c0 -75.333 -29.6709 -123.669 -89.0039 -145.002c-9.33301 -3.33301 -29 -6.66602 -59 -9.99902v-46c70 0 105.333 -22.333 106 -67c0.666992 -24 -9.16602 -42.167 -29.499 -54.5s-48.833 -18.5 -85.5 -18.5c-32 0 -60.333 3.33301 -85 10v30
c6.66699 -1.33301 19.334 -2 38.001 -2c31.333 0 47.333 9.33301 48 28c0.666992 5.33301 -0.166016 10 -2.49902 14s-5.33301 7 -9 9s-7.16699 3.5 -10.5 4.5s-6.33301 1.83301 -9 2.5l-5 1v90c-71.333 7.33301 -115 38 -131 92c-4 13.333 -6 32 -6 56v227
c0 29.333 4.66699 54.333 14 75c25.333 54 76.333 81 153 81c30.667 0 60.834 -6 90.501 -18s50.5 -33 62.5 -63c6 -14 9 -34.667 9 -62v-61h-117v62c0 38.667 -15.333 57.667 -46 57c-16.667 0 -29 -5.83301 -37 -17.5s-11.667 -23.167 -11 -34.5v-17v-223
c0 -45.333 15.667 -67.666 47 -66.999c30.667 0 46 22 46 66v59h118v-58z" />
    <glyph glyph-name="egrave" unicode="&#xe8;" 
d="M262 574h-86l-133 132h153zM360 230l-203 0.000976562v-84c0 -16.667 1 -28 3 -34c6 -19.333 19.667 -29 41 -29c19.333 0 32 9.33301 38 28c2.66699 7.33301 4 26.666 4 57.999h115v-41c0 -19.333 -1.66699 -34.666 -5 -45.999c-17.333 -61.333 -68 -92 -152 -92
c-82.667 0 -134 32.667 -154 98c-6 21.333 -9 43.666 -9 66.999v216c0 26.667 4.33301 49.667 13 69c11.333 28 31 48.667 59 62s58.667 20 92 20c37.333 0 68.333 -7.5 93 -22.5s41.667 -31.833 51 -50.5s14 -43 14 -73v-146zM242 314.001v63c0 34 -13.667 51 -41 51
c-29.333 0 -44 -17 -44 -51v-63h85z" />
    <glyph glyph-name="eacute" unicode="&#xe9;" 
d="M344 706l-133 -132h-87l67 132h153zM360 230l-203 0.000976562v-84c0 -16.667 1 -28 3 -34c6 -19.333 19.667 -29 41 -29c19.333 0 32 9.33301 38 28c2.66699 7.33301 4 26.666 4 57.999h115v-41c0 -19.333 -1.66699 -34.666 -5 -45.999
c-17.333 -61.333 -68 -92 -152 -92c-82.667 0 -134 32.667 -154 98c-6 21.333 -9 43.666 -9 66.999v216c0 26.667 4.33301 49.667 13 69c11.333 28 31 48.667 59 62s58.667 20 92 20c37.333 0 68.333 -7.5 93 -22.5s41.667 -31.833 51 -50.5s14 -43 14 -73v-146z
M242 314.001v63c0 34 -13.667 51 -41 51c-29.333 0 -44 -17 -44 -51v-63h85z" />
    <glyph glyph-name="ecircumflex" unicode="&#xea;" 
d="M347 574h-105l-44 73l-48 -73h-104l86 132h129zM360 230l-203 0.000976562v-84c0 -16.667 1 -28 3 -34c6 -19.333 19.667 -29 41 -29c19.333 0 32 9.33301 38 28c2.66699 7.33301 4 26.666 4 57.999h115v-41c0 -19.333 -1.66699 -34.666 -5 -45.999
c-17.333 -61.333 -68 -92 -152 -92c-82.667 0 -134 32.667 -154 98c-6 21.333 -9 43.666 -9 66.999v216c0 26.667 4.33301 49.667 13 69c11.333 28 31 48.667 59 62s58.667 20 92 20c37.333 0 68.333 -7.5 93 -22.5s41.667 -31.833 51 -50.5s14 -43 14 -73v-146z
M242 314.001v63c0 34 -13.667 51 -41 51c-29.333 0 -44 -17 -44 -51v-63h85z" />
    <glyph glyph-name="edieresis" unicode="&#xeb;" 
d="M347 595h-119v124h119v-124zM164 595h-119v124h119v-124zM360 230l-203 0.000976562v-84c0 -16.667 1 -28 3 -34c6 -19.333 19.667 -29 41 -29c19.333 0 32 9.33301 38 28c2.66699 7.33301 4 26.666 4 57.999h115v-41c0 -19.333 -1.66699 -34.666 -5 -45.999
c-17.333 -61.333 -68 -92 -152 -92c-82.667 0 -134 32.667 -154 98c-6 21.333 -9 43.666 -9 66.999v216c0 26.667 4.33301 49.667 13 69c11.333 28 31 48.667 59 62s58.667 20 92 20c37.333 0 68.333 -7.5 93 -22.5s41.667 -31.833 51 -50.5s14 -43 14 -73v-146z
M242 314.001v63c0 34 -13.667 51 -41 51c-29.333 0 -44 -17 -44 -51v-63h85z" />
    <glyph glyph-name="igrave" unicode="&#xec;" horiz-adv-x="208" 
d="M168 574h-86l-133 132h153zM164 0h-120v512h120v-512z" />
    <glyph glyph-name="iacute" unicode="&#xed;" horiz-adv-x="208" 
d="M251 706l-133 -132h-87l67 132h153zM164 0h-120v512h120v-512z" />
    <glyph glyph-name="icircumflex" unicode="&#xee;" horiz-adv-x="208" 
d="M253 574h-105l-44 72l-48 -72h-104l86 132h129zM164 0h-120v512h120v-512z" />
    <glyph glyph-name="idieresis" unicode="&#xef;" horiz-adv-x="208" 
d="M253 595h-119v124h119v-124zM70 595h-119v124h119v-124zM164 0h-120v512h120v-512z" />
    <glyph glyph-name="eth" unicode="&#xf0;" 
d="M374 635l-61.001 -18.999c13.333 -24.667 23.5 -50.667 30.5 -78s11 -50.5 12 -69.5s1.5 -44.833 1.5 -77.5l1 -258c0 -26.667 -4 -48.667 -12 -66c-24.667 -51.333 -73.667 -77 -147 -77c-82 0 -133 29.333 -153 88c-5.33301 17.333 -8 39.666 -8 66.999v229
c0 26 3 47.333 9 64c10.667 28 28.167 49.167 52.5 63.5s48.833 21.5 73.5 21.5c30 0 53.333 -11 70 -33c-8 36.667 -18.333 67.667 -31 93l-113 -38l-23 53l103 35c-20 20 -36.667 35.333 -50 46l99 41c12.667 -11.333 30.334 -29 53.001 -53l70 23zM239.999 122.001
l0.00195312 264.002c0 11.333 -0.5 20.666 -1.5 27.999s-4.83301 14.833 -11.5 22.5s-16.334 11.5 -29.001 11.5c-10.667 0 -19.334 -3.33301 -26.001 -10c-10 -8.66699 -15 -26.334 -15 -53.001v-260c0 -36 14.333 -53.667 43 -53c26.667 1.33301 40 18 40 50z" />
    <glyph glyph-name="ntilde" unicode="&#xf1;" horiz-adv-x="417" 
d="M378 698c-1.33301 -60 -14.6689 -98.001 -40.002 -114.001c-14 -9.33301 -29 -14 -45 -14c-18.667 0.666992 -48.667 10 -90 28c-24 11.333 -40.333 17 -49 17c-4 0 -7.83301 -0.5 -11.5 -1.5s-6.66699 -2.33301 -9 -4s-4.66602 -3.66699 -6.99902 -6
s-4.16602 -4.5 -5.49902 -6.5l-4.5 -7c-1.66699 -2.66699 -2.66699 -4.66699 -3 -6l-1.5 -6l-2 -4h-65c1.33301 24.667 4.5 45.167 9.5 61.5s14.833 30.833 29.5 43.5c16 14 35.667 21 59 21c18.667 0 46.667 -8.33301 84 -25c27.333 -12.667 45.333 -19 54 -19
c4 0 8.66699 1.33301 14 4c8 4.66699 14.333 17.334 19 38.001h64zM372.997 -0.000976562h-118.001v377c0 17.333 -1.16699 29.666 -3.5 36.999s-7.16602 13.333 -14.499 18c-5.33301 4 -13 6 -23 6c-34 0 -51 -23 -51 -69v-369h-119v512h121l-1 -37
c17.333 16.667 33.333 28.667 48 36s32.667 11 54 11c24.667 0 46.5 -6.16699 65.5 -18.5s31.5 -30.166 37.5 -53.499c2.66699 -9.33301 4 -26 4 -50v-400z" />
    <glyph glyph-name="ograve" unicode="&#xf2;" 
d="M262 574h-86l-133 132h153zM358 132c0 -37.333 -9.66699 -67.333 -29 -90c-28.667 -34.667 -74 -52 -136 -52c-18.667 0 -35.667 1.66699 -51 5c-48.667 10 -80.334 37 -95.001 81c-6 17.333 -9 40.333 -9 69v229c0 25.333 3.33301 47 10 65
c20.667 55.333 71.334 83 152.001 83c76 0 124.667 -25 146 -75c8 -18 12 -40.667 12 -68v-247zM240 126l-0.000976562 260.001c0 29.333 -6.33301 48 -19 56c-5.33301 4 -12.666 6 -21.999 6c-10 0 -18 -2.33301 -24 -7c-12 -8.66699 -18 -27.334 -18 -56.001v-260
c0 -35.333 13.667 -53 41 -53c28 0 42 18 42 54z" />
    <glyph glyph-name="oacute" unicode="&#xf3;" 
d="M344 706l-133 -132h-87l67 132h153zM358 132c0 -37.333 -9.66699 -67.333 -29 -90c-28.667 -34.667 -74 -52 -136 -52c-18.667 0 -35.667 1.66699 -51 5c-48.667 10 -80.334 37 -95.001 81c-6 17.333 -9 40.333 -9 69v229c0 25.333 3.33301 47 10 65
c20.667 55.333 71.334 83 152.001 83c76 0 124.667 -25 146 -75c8 -18 12 -40.667 12 -68v-247zM240 126l-0.000976562 260.001c0 29.333 -6.33301 48 -19 56c-5.33301 4 -12.666 6 -21.999 6c-10 0 -18 -2.33301 -24 -7c-12 -8.66699 -18 -27.334 -18 -56.001v-260
c0 -35.333 13.667 -53 41 -53c28 0 42 18 42 54z" />
    <glyph glyph-name="ocircumflex" unicode="&#xf4;" 
d="M347 574h-105l-44 73l-48 -73h-104l86 132h129zM358 132c0 -37.333 -9.66699 -67.333 -29 -90c-28.667 -34.667 -74 -52 -136 -52c-18.667 0 -35.667 1.66699 -51 5c-48.667 10 -80.334 37 -95.001 81c-6 17.333 -9 40.333 -9 69v229c0 25.333 3.33301 47 10 65
c20.667 55.333 71.334 83 152.001 83c76 0 124.667 -25 146 -75c8 -18 12 -40.667 12 -68v-247zM240 126l-0.000976562 260.001c0 29.333 -6.33301 48 -19 56c-5.33301 4 -12.666 6 -21.999 6c-10 0 -18 -2.33301 -24 -7c-12 -8.66699 -18 -27.334 -18 -56.001v-260
c0 -35.333 13.667 -53 41 -53c28 0 42 18 42 54z" />
    <glyph glyph-name="otilde" unicode="&#xf5;" 
d="M367 698c-0.666992 -18.667 -1.49805 -33.167 -2.49805 -43.5s-4.5 -22.833 -10.5 -37.5s-15 -25.667 -27 -33c-14 -9.33301 -29 -14 -45 -14c-20 0.666992 -49.667 10 -89 28c-24 11.333 -40.333 17 -49 17c-22.667 -0.666992 -37.334 -14.334 -44.001 -41.001h-65
c1.33301 24.667 4.33301 45.167 9 61.5s14.334 30.833 29.001 43.5c16.667 14 36.667 21 60 21c20.667 0 48.667 -8.33301 84 -25c28.667 -12.667 46.667 -19 54 -19c3.33301 0 7.66602 1.33301 12.999 4c9.33301 4.66699 15.666 17.334 18.999 38.001h64zM358.002 132
c0 -37.333 -9.66699 -67.333 -29 -90c-28.667 -34.667 -74 -52 -136 -52c-18.667 0 -35.667 1.66699 -51 5c-48.667 10 -80.334 37 -95.001 81c-6 17.333 -9 40.333 -9 69v229c0 25.333 3.33301 47 10 65c20.667 55.333 71.334 83 152.001 83c76 0 124.667 -25 146 -75
c8 -18 12 -40.667 12 -68v-247zM240.002 126l-0.000976562 260.001c0 29.333 -6.33301 48 -19 56c-5.33301 4 -12.666 6 -21.999 6c-10 0 -18 -2.33301 -24 -7c-12 -8.66699 -18 -27.334 -18 -56.001v-260c0 -35.333 13.667 -53 41 -53c28 0 42 18 42 54z" />
    <glyph glyph-name="odieresis" unicode="&#xf6;" 
d="M345 595h-119v124h119v-124zM162 595h-119v124h119v-124zM358 132c0 -37.333 -9.66699 -67.333 -29 -90c-28.667 -34.667 -74 -52 -136 -52c-18.667 0 -35.667 1.66699 -51 5c-48.667 10 -80.334 37 -95.001 81c-6 17.333 -9 40.333 -9 69v229c0 25.333 3.33301 47 10 65
c20.667 55.333 71.334 83 152.001 83c76 0 124.667 -25 146 -75c8 -18 12 -40.667 12 -68v-247zM240 126l-0.000976562 260.001c0 29.333 -6.33301 48 -19 56c-5.33301 4 -12.666 6 -21.999 6c-10 0 -18 -2.33301 -24 -7c-12 -8.66699 -18 -27.334 -18 -56.001v-260
c0 -35.333 13.667 -53 41 -53c28 0 42 18 42 54z" />
    <glyph glyph-name="divide" unicode="&#xf7;" horiz-adv-x="559" 
d="M336 405h-112v128h112v-128zM485 248h-411v101h411v-101zM336 64h-112v128h112v-128z" />
    <glyph glyph-name="oslash" unicode="&#xf8;" 
d="M379 501l-35.9971 -52.002c9.33301 -16 14 -40.667 14 -74v-243c0 -42.667 -13 -76.667 -39 -102c-26.667 -26.667 -65.334 -40 -116.001 -40c-27.333 0 -49.333 2.83301 -66 8.5s-36.334 16.834 -59.001 33.501l-28 -41l-40 25l36 57c-4 10 -6 29.667 -6 59v247
c0 48.667 14 84.334 42 107.001c28 24 67 36 117 36c39.333 0 77.666 -11 114.999 -33l25 38zM248.003 387.998l-1 11c-2 27.333 -17.667 41 -47 41c-12 0 -22 -2.66699 -30 -8c-15.333 -10 -23 -29 -23 -57v-143zM246.003 133.998l0.000976562 165l-100 -158v-14
c0 -19.333 6.33301 -33 19 -41c6.66699 -5.33301 16.667 -8 30 -8c23.333 0 38.666 8.33301 45.999 25c3.33301 6.66699 5 17 5 31z" />
    <glyph glyph-name="ugrave" unicode="&#xf9;" horiz-adv-x="417" 
d="M273 574h-86l-133 132h153zM373 0l-120.001 -0.000976562v42c-36.667 -34 -73 -51 -109 -51c-22 0 -42 6 -60 18c-12.667 8.66699 -22.167 20.334 -28.5 35.001s-9.83301 27 -10.5 37s-1 25 -1 45v386h120v-368c0 -25.333 3.66699 -41.666 11 -48.999
c8.66699 -8.66699 19.334 -13 32.001 -13c12 0 22 3.33301 30 10c10.667 9.33301 16 28.666 16 57.999v362h120v-512z" />
    <glyph glyph-name="uacute" unicode="&#xfa;" horiz-adv-x="417" 
d="M354 706l-133 -132h-87l67 132h153zM373 0l-120.001 -0.000976562v42c-36.667 -34 -73 -51 -109 -51c-22 0 -42 6 -60 18c-12.667 8.66699 -22.167 20.334 -28.5 35.001s-9.83301 27 -10.5 37s-1 25 -1 45v386h120v-368c0 -25.333 3.66699 -41.666 11 -48.999
c8.66699 -8.66699 19.334 -13 32.001 -13c12 0 22 3.33301 30 10c10.667 9.33301 16 28.666 16 57.999v362h120v-512z" />
    <glyph glyph-name="ucircumflex" unicode="&#xfb;" horiz-adv-x="417" 
d="M358 574h-105l-44 72l-48 -72h-104l86 132h129zM373 0l-120.001 -0.000976562v42c-36.667 -34 -73 -51 -109 -51c-22 0 -42 6 -60 18c-12.667 8.66699 -22.167 20.334 -28.5 35.001s-9.83301 27 -10.5 37s-1 25 -1 45v386h120v-368c0 -25.333 3.66699 -41.666 11 -48.999
c8.66699 -8.66699 19.334 -13 32.001 -13c12 0 22 3.33301 30 10c10.667 9.33301 16 28.666 16 57.999v362h120v-512z" />
    <glyph glyph-name="udieresis" unicode="&#xfc;" horiz-adv-x="417" 
d="M355 595h-119v124h119v-124zM172 595h-119v124h119v-124zM373 0l-120.001 -0.000976562v42c-36.667 -34 -73 -51 -109 -51c-22 0 -42 6 -60 18c-12.667 8.66699 -22.167 20.334 -28.5 35.001s-9.83301 27 -10.5 37s-1 25 -1 45v386h120v-368
c0 -25.333 3.66699 -41.666 11 -48.999c8.66699 -8.66699 19.334 -13 32.001 -13c12 0 22 3.33301 30 10c10.667 9.33301 16 28.666 16 57.999v362h120v-512z" />
    <glyph glyph-name="yacute" unicode="&#xfd;" horiz-adv-x="354" 
d="M323 706l-133 -132h-87l67 132h153zM353 512l-116.999 -549c-10 -48 -23.333 -82.333 -40 -103c-20.667 -24.667 -55 -37 -103 -37c-15.333 0 -41 3 -77 9l18 94c18.667 -4.66699 33.667 -7 45 -7c18 0 31.167 7 39.5 21s13.166 29.333 14.499 46l1 14l-133 512h118
l66 -329l51 329h117z" />
    <glyph glyph-name="thorn" unicode="&#xfe;" horiz-adv-x="417" 
d="M379 116c0 -44 -10.165 -76 -30.498 -96s-45.5 -30 -75.5 -30c-6.66699 0 -13.334 0.5 -20.001 1.5s-12.334 2.16699 -17.001 3.5s-10 3.5 -16 6.5s-10.5 5.33301 -13.5 7s-7.33301 4.66699 -13 9l-11 8.5c-1.66699 1.33301 -5.16699 4.5 -10.5 9.5s-8.33301 7.5 -9 7.5
v-220h-119v883h119v-233c34.667 32.667 70 49 106 49c25.333 0 46.333 -6.33301 63 -19c14.667 -10.667 25.667 -24.5 33 -41.5s11.5 -30.833 12.5 -41.5s1.5 -25.667 1.5 -45v-259zM259.002 140l0.000976562 237c0 37.333 -15.667 56 -47 56c-32.667 0 -49 -19.667 -49 -59
v-237c0 -18.667 5.16699 -31.667 15.5 -39s21.166 -11 32.499 -11c32 0 48 17.667 48 53z" />
    <glyph glyph-name="ydieresis" unicode="&#xff;" horiz-adv-x="354" 
d="M326 595h-119v124h119v-124zM143 595h-119v124h119v-124zM353 512l-116.999 -549c-10 -48 -23.333 -82.333 -40 -103c-20.667 -24.667 -55 -37 -103 -37c-15.333 0 -41 3 -77 9l18 94c18.667 -4.66699 33.667 -7 45 -7c18 0 31.167 7 39.5 21s13.166 29.333 14.499 46
l1 14l-133 512h118l66 -329l51 329h117z" />
    <glyph glyph-name="OE" unicode="&#x152;" horiz-adv-x="688" 
d="M664 0l-305 -0.000976562l-1 31c-8.66699 -8 -19 -15.333 -31 -22c-29.333 -16 -65 -24 -107 -24c-10.667 0 -21.5 0.833008 -32.5 2.5s-26.333 5.16699 -46 10.5s-37.5 15.5 -53.5 30.5s-27.667 33.833 -35 56.5c-6 20 -9 44.333 -9 73v366
c0 17.333 0.333008 30.333 1 39c3.33301 66.667 30 112.334 80 137.001c28 14 60 21 96 21c44 0 81 -10.333 111 -31c6.66699 -4.66699 15.667 -12.667 27 -24v40h297v-109h-223v-165h211v-104h-211v-217h231v-111zM302 170.999v360c0 31.333 -4 53.333 -12 66
c-10 15.333 -27.333 23 -52 23c-24 0 -41 -8.33301 -51 -25c-8 -12.667 -12 -34.334 -12 -65.001v-366c0 -12.667 1 -23 3 -31c10 -30 30.333 -44.667 61 -44c15.333 0 28.333 4 39 12c8 6 13.833 13.333 17.5 22s5.66699 15.834 6 21.501s0.5 14.5 0.5 26.5z" />
    <glyph glyph-name="oe" unicode="&#x153;" horiz-adv-x="604" 
d="M566 130c0 -24 -1.99902 -43.333 -5.99902 -58c-16 -55.333 -63.667 -83 -143 -83c-42.667 0 -82 11.333 -118 34c-35.333 -22 -73 -33 -113 -33c-32 0 -60.667 7.33301 -86 22s-43 36.334 -53 65.001c-6 16 -9 38.333 -9 67v219c0 26.667 2.66699 48 8 64
c9.33301 30.667 27.833 54.167 55.5 70.5s58.167 24.5 91.5 24.5c36 0 71.667 -12.667 107 -38c43.333 25.333 83.333 38 120 38c30 0 57.5 -7.33301 82.5 -22s42.833 -35.334 53.5 -62.001c6.66699 -15.333 10 -37 10 -65v-143h-203v-94c0 -23.333 6 -39 18 -47
c7.33301 -5.33301 16.666 -8 27.999 -8c9.33301 0 17 2 23 6c12 8 18 24 18 48l1 37h115v-42zM449.001 310l-0.000976562 68c0 24 -6.66699 40.333 -20 49c-9.33301 4.66699 -17 7 -23 7c-7.33301 0 -14.666 -2 -21.999 -6c-14.667 -8 -22 -24.333 -22 -49v-69h87zM244 130
v248c0 24 -5.66699 39.667 -17 47c-6.66699 4.66699 -14.667 7 -24 7c-10 0 -18 -2 -24 -6c-13.333 -8.66699 -20 -24.667 -20 -48v-251c0 -9.33301 0.666992 -16 2 -20c5.33301 -19.333 18 -29 38 -29c7.33301 0 15 2 23 6c14.667 8.66699 22 24 22 46z" />
    <glyph glyph-name="Scaron" unicode="&#x160;" horiz-adv-x="458" 
d="M379 895l-85 -133h-132l-85 133h105l45 -74l48 74h104zM424 197c0 -51.333 -2.33105 -85.9932 -6.99805 -103.993c-20 -72 -81 -108 -183 -108c-62.667 0 -111 13.333 -145 40c-16 12 -28.333 28 -37 48c-9.33301 23.333 -14 47.666 -14 72.999v103h129v-82v-5
c0 -34.667 7.66699 -57 23 -67c10.667 -6.66699 24 -10 40 -10c20 0 35 4.33301 45 13c8.66699 6.66699 14 16.667 16 30s3 34.666 3 63.999s-4.66699 51 -14 65c-4 6 -14 15.333 -30 28l-123 83c-26 17.333 -45.667 36.666 -59 57.999c-16.667 28 -25 65.333 -25 112
c0 41.333 5.66699 73.666 17 96.999c9.33301 20 22.833 36.5 40.5 49.5s37 21.667 58 26s36.667 7.16602 47 8.49902s20.166 2 29.499 2c89.333 0 146.333 -31 171 -93c7.33301 -18.667 11 -38.334 11 -59.001v-70h-130v72c0 34 -19.333 51 -58 51s-58 -23.333 -58 -70
c0 -32 4.66699 -54.667 14 -68c3.33301 -4.66699 12.333 -12.334 27 -23.001l126 -87c22.667 -14.667 42 -33 58 -55l9 -13c2.66699 -4 5 -8.5 7 -13.5s3.66699 -9 5 -12s2.5 -7.33301 3.5 -13s1.66699 -9.66699 2 -12s0.666016 -7 0.999023 -14s0.5 -11.333 0.5 -13v-15.5
v-16z" />
    <glyph glyph-name="scaron" unicode="&#x161;" horiz-adv-x="375" 
d="M337 706l-85 -132h-132l-85 132h105l45 -73l48 73h104zM341 148c0 -52.667 -8.99902 -90.002 -26.999 -112.002c-24.667 -30.667 -68.334 -46 -131.001 -46c-76.667 0 -125 23.667 -145 71c-7.33301 17.333 -11 39.333 -11 66v53h110v-40c0 -12 1 -22.667 3 -32
c4 -22 18.333 -33 43 -33c11.333 0 20.333 2.33301 27 7c13.333 8 20 24.333 20 49c0 18 -2.16699 30.833 -6.5 38.5s-13.833 16.834 -28.5 27.501l-100 71c-23.333 16.667 -39.333 33.834 -48 51.501s-13 41.5 -13 71.5c0.666992 48 14.167 81.833 40.5 101.5
s64.5 29.5 114.5 29.5c68 0 112 -18.333 132 -55c9.33301 -15.333 14 -36 14 -62v-57h-103v37c0 37.333 -14.667 56 -44 56c-8 0 -15.333 -1.66699 -22 -5c-12.667 -7.33301 -19 -21 -19 -41c0 -14 2.5 -24.667 7.5 -32s13.833 -15.333 26.5 -24l110 -77
c8.66699 -6 19 -16.333 31 -31c12.667 -18 19 -45.667 19 -83z" />
    <glyph glyph-name="Ydieresis" unicode="&#x178;" horiz-adv-x="417" 
d="M369 762h-116v121h116v-121zM169 762h-117v121h117v-121zM416 706l-141 -497v-209h-133v218l-141 488h137l72 -356l69 356h137z" />
    <glyph glyph-name="florin" unicode="&#x192;" horiz-adv-x="354" 
d="M323 673l-11 -98c-13.333 1.33301 -22 2 -26 2c-20 0 -31.667 -12 -35 -36l-3 -29h52l-9 -79h-53l-56 -489c-2.66699 -22.667 -8.33398 -41.334 -17.001 -56.001s-20.167 -25.5 -34.5 -32.5s-28.666 -11.667 -42.999 -14s-31.5 -3.5 -51.5 -3.5
c-6.66699 0 -20.667 0.666992 -42 2l12 97c6 -0.666992 14.333 -1 25 -1c20.667 0 32.667 11.667 36 35l52 462h-52l8 79h54l6 56c6 54.667 33.333 88.334 82 101.001c12.667 3.33301 34 5 64 5c5.33301 0 12.5 -0.166992 21.5 -0.5s15.833 -0.5 20.5 -0.5z" />
    <glyph glyph-name="circumflex" unicode="&#x2c6;" horiz-adv-x="250" 
d="M276 574h-105l-44 73l-48 -73h-105l86 132h129z" />
    <glyph glyph-name="tilde" unicode="&#x2dc;" horiz-adv-x="250" 
d="M291 697c-0.666992 -18.667 -1.5 -33.1699 -2.5 -43.5029s-4.5 -22.666 -10.5 -36.999s-14.667 -25.166 -26 -32.499c-14 -9.33301 -29.333 -14 -46 -14c-20 0.666992 -49.667 10 -89 28c-24 11.333 -40.333 17 -49 17c-4 0 -7.83301 -0.5 -11.5 -1.5
s-6.66699 -2.33301 -9 -4s-4.66602 -3.66699 -6.99902 -6s-4.16602 -4.5 -5.49902 -6.5l-4.5 -7c-1.66699 -2.66699 -2.66699 -4.66699 -3 -6l-1.5 -6l-2 -4h-65c1.33301 24.667 4.5 45.167 9.5 61.5s14.833 30.833 29.5 43.5c16 14 35.667 21 59 21
c20.667 0 48.667 -8.33301 84 -25c28.667 -12.667 46.667 -19 54 -19c3.33301 0 7.66602 1.33301 12.999 4c9.33301 4.66699 15.666 17.334 18.999 38.001z" />
    <glyph glyph-name="endash" unicode="&#x2013;" horiz-adv-x="421" 
d="M388 243h-355v98h355v-98z" />
    <glyph glyph-name="emdash" unicode="&#x2014;" horiz-adv-x="626" 
d="M593 242h-560v99h560v-99z" />
    <glyph glyph-name="quoteleft" unicode="&#x2018;" horiz-adv-x="187" 
d="M152 438h-118v134l75 134h43l-61 -134h61v-134z" />
    <glyph glyph-name="quoteright" unicode="&#x2019;" horiz-adv-x="187" 
d="M150 573l-80 -135h-46l70 135h-62v133h118v-133z" />
    <glyph glyph-name="quotesinglbase" unicode="&#x201a;" horiz-adv-x="187" 
d="M153 0l-83 -135h-44l68 135h-58v129h117v-129z" />
    <glyph glyph-name="quotedblleft" unicode="&#x201c;" horiz-adv-x="375" 
d="M343 706l-68 -136h61v-130h-120v130l80 136h47zM163 706l-73 -136h62v-130h-118v130l83 136h46z" />
    <glyph glyph-name="quotedblright" unicode="&#x201d;" horiz-adv-x="375" 
d="M339 576l-84 -136h-46l74 136h-62v130h118v-130zM157 576l-80 -136h-47l68 136h-62v130h121v-130z" />
    <glyph glyph-name="quotedblbase" unicode="&#x201e;" horiz-adv-x="375" 
d="M337 0l-73 -137h-45l64 137h-64v130h118v-130zM155 0l-69 -137h-43l58 137h-63v130h117v-130z" />
    <glyph glyph-name="dagger" unicode="&#x2020;" horiz-adv-x="437" 
d="M417 423h-139v-423h-119v423h-136v113h136v170h119v-170h139v-113z" />
    <glyph glyph-name="daggerdbl" unicode="&#x2021;" horiz-adv-x="437" 
d="M418 142h-140v-142h-116v142h-139v108h139v209h-139v109h139v138h116v-138h140v-109h-140v-209h140v-108z" />
    <glyph glyph-name="bullet" unicode="&#x2022;" horiz-adv-x="333" 
d="M282 214h-231v276h231v-276z" />
    <glyph glyph-name="ellipsis" unicode="&#x2026;" horiz-adv-x="1000" 
d="M886 0h-106v125h106v-125zM553 0h-106v125h106v-125zM220 0h-107v125h107v-125z" />
    <glyph glyph-name="perthousand" unicode="&#x2030;" horiz-adv-x="1000" 
d="M974 102c0 -30 -9 -55.6689 -27 -77.002s-49.333 -31.666 -94 -30.999c-46.667 0.666992 -78.167 11.167 -94.5 31.5s-24.5 46.5 -24.5 78.5v226c0 25.333 2.66699 44 8 56c17.333 40.667 54.333 61 111 61c60.667 0 99 -20.333 115 -61c4 -9.33301 6 -25.666 6 -48.999
v-235zM683 101.998c0 -30 -9.16602 -55.6689 -27.499 -77.002s-49.5 -31.666 -93.5 -30.999c-46.667 0.666992 -78.334 11.167 -95.001 31.5s-25 46.5 -25 78.5v226c0 25.333 2.66699 44 8 56c17.333 40.667 54.333 61 111 61c60.667 0 99 -20.333 115 -61
c4.66699 -11.333 7 -27.666 7 -48.999v-235zM519.001 691.996l-265 -737l-64 22l266 738zM266.001 325.996c0 -30 -9 -55.668 -27 -77.001s-49.333 -31.666 -94 -30.999c-46.667 0.666992 -78.167 11 -94.5 31s-24.5 46.333 -24.5 79v225c0 25.333 2.66699 44.333 8 57
c18 40.667 55 61 111 61c57.333 0 95 -19 113 -57c5.33301 -12 8 -29.667 8 -53v-235zM894.001 101.995l0.00390625 236c0 16.667 -2.33301 28.5 -7 35.5s-15.334 10.833 -32.001 11.5c-15.333 0 -26 -3.5 -32 -10.5s-9 -18.167 -9 -33.5v-245
c0 -7.33301 0.666992 -13.333 2 -18s5.16602 -9.16699 11.499 -13.5s15.166 -6.5 26.499 -6.5c27.333 0 40.666 14 39.999 42v2zM602.005 101.995l0.000976562 236c0 16.667 -2.33301 28.5 -7 35.5s-15.334 10.833 -32.001 11.5c-15.333 0 -25.833 -3.5 -31.5 -10.5
s-8.5 -18.167 -8.5 -33.5v-245c0 -7.33301 0.5 -13.333 1.5 -18s4.66699 -9.16699 11 -13.5s15.5 -6.5 27.5 -6.5c8 0 14.667 1.33301 20 4s9.33301 5 12 7s4.5 6.16699 5.5 12.5s1.5 9.83301 1.5 10.5v10zM185.006 324.995l0.00292969 237v7v8.5
c0 1.66699 -0.333008 4.5 -1 8.5s-1.83398 7 -3.50098 9s-3.83398 4.16699 -6.50098 6.5s-6.33398 4.16602 -11.001 5.49902s-10 2 -16 2c-10 0 -18.167 -1.33301 -24.5 -4s-10.5 -7.16699 -12.5 -13.5s-3.16699 -10.666 -3.5 -12.999s-0.5 -6.83301 -0.5 -13.5v-245
c0 -7.33301 0.5 -13.333 1.5 -18s4.66699 -9.16699 11 -13.5s15.5 -6.5 27.5 -6.5c26.667 0 39.667 13.667 39 41v0.5v1.5z" />
    <glyph glyph-name="guilsinglleft" unicode="&#x2039;" horiz-adv-x="167" 
d="M132 127l-101 93v92l101 97v-97l-39 -45l39 -40v-100z" />
    <glyph glyph-name="guilsinglright" unicode="&#x203a;" horiz-adv-x="167" 
d="M136 221l-102 -94v97l43 45l-43 42v98l102 -94v-94z" />
    <glyph glyph-name="Euro" unicode="&#x20ac;" horiz-adv-x="481" 
d="M445 667l-26.001 -108.999c-32 29.333 -68.333 44 -109 44c-36.667 0 -60.334 -9.5 -71.001 -28.5s-16 -49.167 -16 -90.5v-47h167l-15 -67h-152v-49h139l-14 -67h-125v-63c0 -36 6.16699 -62 18.5 -78s36.166 -24 71.499 -24c27.333 0 50.5 4 69.5 12s39.5 22 61.5 42
v-124c-40.667 -22 -94.667 -33 -162 -33c-35.333 0 -65.166 4.16699 -89.499 12.5s-43.166 18.5 -56.499 30.5s-23.333 29.5 -30 52.5s-10.667 44 -12 63s-2 45.167 -2 78.5v31h-59l14 67h45v48h-61l15 68h46v49c0 30 0.333008 51.667 1 65s4.83398 30.666 12.501 51.999
s19.5 39 35.5 53c35.333 30.667 87 46 155 46c57.333 0 107 -11.333 149 -34z" />
    <glyph glyph-name="trademark" unicode="&#x2122;" horiz-adv-x="627" 
d="M580 374h-71l1 253l-52 -253h-63l-57 257l4 -257h-73v332h115l42 -195l40 195h114v-332zM240 638h-73v-264h-81v264h-77v68h231v-68z" />
    <glyph glyph-name=".null" horiz-adv-x="0" 
 />
    <glyph glyph-name="nonmarkingreturn" horiz-adv-x="333" 
 />
    </font>
</defs>
</svg>
